<svg width="20" height="19" viewBox="0 0 20 19" fill="none" xmlns="http://www.w3.org/2000/svg">
<g clip-path="url(#clip0_253_9986)">
<path d="M10.0222 1.7553C12.4185 1.7553 12.7001 1.76606 13.6466 1.80912C14.5231 1.8477 14.9968 1.99393 15.3135 2.11863C15.7333 2.28191 16.033 2.47479 16.3461 2.78789C16.6601 3.10189 16.8556 3.40063 17.0153 3.82049C17.1364 4.13717 17.2863 4.61086 17.3257 5.48645C17.3679 6.43382 17.3796 6.71552 17.3796 9.11175C17.3796 11.508 17.3679 11.7897 17.3257 12.7361C17.2863 13.6126 17.14 14.0863 17.0153 14.403C16.872 14.7928 16.6434 15.1456 16.3461 15.4356C16.0321 15.7496 15.7333 15.9452 15.3144 16.1049C14.9968 16.226 14.5231 16.3758 13.6475 16.4144C12.7001 16.4574 12.4185 16.4682 10.0231 16.4682C7.62599 16.4682 7.34429 16.4574 6.39782 16.4144C5.52133 16.3758 5.04765 16.2296 4.73096 16.1049C4.34115 15.9616 3.98833 15.7329 3.69837 15.4356C3.3999 15.1466 3.17104 14.7935 3.02911 14.403C2.908 14.0863 2.75817 13.6126 2.7196 12.737C2.67654 11.7897 2.66577 11.508 2.66577 9.11175C2.66577 6.71552 2.67654 6.43382 2.7196 5.48735C2.75817 4.61086 2.90441 4.13717 3.02911 3.82049C3.19239 3.40063 3.38527 3.10099 3.69837 2.78789C4.01236 2.4739 4.3111 2.27832 4.73096 2.11863C5.04765 1.99752 5.52133 1.8477 6.39782 1.80823C7.34429 1.76247 7.62958 1.7544 10.0222 1.7544V1.7553ZM10.0222 0.138672C7.58652 0.138672 7.2806 0.149437 6.32247 0.1925C5.36972 0.234665 4.71661 0.388074 4.14693 0.608767C3.55572 0.836638 3.05782 1.14704 2.55901 1.64495C2.10355 2.09367 1.75013 2.63527 1.52283 3.23287C1.30214 3.80254 1.14873 4.45386 1.10656 5.41289C1.0635 6.36654 1.05273 6.67246 1.05273 9.10816C1.05273 11.5439 1.0635 11.8498 1.10656 12.8079C1.14873 13.7625 1.30214 14.4138 1.52283 14.987C1.7507 15.5782 2.06111 16.0762 2.55901 16.575C3.00773 17.0304 3.54933 17.3838 4.14693 17.6111C4.71661 17.8318 5.36882 17.9852 6.32695 18.0283C7.28329 18.0705 7.58562 18.0812 10.0258 18.0812C12.4651 18.0812 12.7674 18.0705 13.7256 18.0274C14.6801 17.9852 15.3314 17.8318 15.9047 17.6111C16.5034 17.3861 17.0455 17.0324 17.4926 16.575C17.9481 16.1262 18.3015 15.5846 18.5288 14.987C18.7495 14.4174 18.9029 13.7661 18.9451 12.807C18.9881 11.8498 18.9989 11.5475 18.9989 9.10816C18.9989 6.66887 18.9881 6.36654 18.9451 5.4084C18.9029 4.45386 18.7495 3.80254 18.5288 3.22928C18.3037 2.63054 17.95 2.08849 17.4926 1.64136C17.0439 1.1859 16.5023 0.832481 15.9047 0.605179C15.335 0.384485 14.6837 0.231076 13.7247 0.188911C12.7656 0.149437 12.4579 0.138672 10.0222 0.138672Z" fill="white"/>
<path d="M10.0217 4.50408C9.41651 4.5042 8.81726 4.62352 8.25817 4.85523C7.69908 5.08694 7.1911 5.4265 6.76324 5.85452C5.89914 6.71896 5.41382 7.89126 5.41406 9.11352C5.4143 10.3358 5.90007 11.5079 6.76451 12.372C7.62895 13.2361 8.80124 13.7214 10.0235 13.7212C11.2458 13.7209 12.4179 13.2352 13.282 12.3707C14.1461 11.5063 14.6314 10.334 14.6312 9.11173C14.6309 7.88947 14.1452 6.71736 13.2807 5.85326C12.4163 4.98915 11.244 4.50384 10.0217 4.50408ZM10.0217 12.0992C9.62463 12.106 9.23015 12.0338 8.86129 11.8866C8.49243 11.7394 8.15658 11.5202 7.87333 11.2418C7.59009 10.9634 7.36512 10.6314 7.21155 10.2652C7.05798 9.8989 6.97889 9.50573 6.97889 9.10859C6.97889 8.71144 7.05798 8.31827 7.21155 7.95202C7.36512 7.58576 7.59009 7.25376 7.87333 6.97538C8.15658 6.697 8.49243 6.47781 8.86129 6.33061C9.23015 6.1834 9.62463 6.11113 10.0217 6.11801C10.8059 6.13159 11.5534 6.45264 12.1031 7.01201C12.6529 7.57137 12.9609 8.32429 12.9609 9.10859C12.9609 9.89289 12.6529 10.6458 12.1031 11.2052C11.5534 11.7645 10.8059 12.0856 10.0217 12.0992ZM14.8115 5.39403C14.9553 5.39818 15.0985 5.37345 15.2326 5.32128C15.3666 5.26911 15.4889 5.19058 15.5921 5.09033C15.6953 4.99008 15.7773 4.87014 15.8333 4.73762C15.8893 4.6051 15.9182 4.46269 15.9182 4.31882C15.9182 4.17495 15.8893 4.03254 15.8333 3.90002C15.7773 3.7675 15.6953 3.64757 15.5921 3.54731C15.4889 3.44706 15.3666 3.36853 15.2326 3.31636C15.0985 3.2642 14.9553 3.23946 14.8115 3.24361C14.5317 3.2517 14.2661 3.36852 14.071 3.56928C13.876 3.77004 13.7669 4.03892 13.7669 4.31882C13.7669 4.59872 13.876 4.8676 14.071 5.06836C14.2661 5.26912 14.5317 5.38595 14.8115 5.39403Z" fill="white"/>
</g>
<defs>
<clipPath id="clip0_253_9986">
<rect width="19.7368" height="17.9426" fill="white" transform="translate(0.158203 0.138672)"/>
</clipPath>
</defs>
</svg>