
<svg width="160" height="40" viewBox="0 0 160 40" fill="none" xmlns="http://www.w3.org/2000/svg">
<path d="M20.4051 23.8603C19.1178 27.7064 23.9357 32.5106 32.9765 32.0779C27.1509 30.19 23.9898 27.8815 23.9898 25.3191C23.9898 20.3579 32.1037 14.5228 29.5371 9.47852C28.6491 15.6191 22.0017 19.0918 20.4051 23.8603Z" fill="url(#paint0_linear_362_6289)"/>
<path d="M12.311 23.1963C10.577 28.3751 13.8487 34.2842 26.019 33.7018C2.99847 26.2436 31.1755 15.1054 25.9345 4.80664C24.0395 12.5842 14.4601 16.7782 12.311 23.1963Z" fill="url(#paint1_linear_362_6289)"/>
<path d="M20.4121 0.560606C19.1461 11.0994 4.10394 15.9194 1.5561 23.7273C-3.59672 39.5212 28.5577 46.8061 36.237 31.7697C28.7868 39.6352 3.38129 37.1873 6.86634 24.1267C8.87811 16.5848 23.9281 9.59697 20.5409 0L20.4121 0.560606Z" fill="url(#paint2_linear_362_6289)"/>
<path d="M57.1067 16.5223V11.2749L57.5624 11.3094L57.8939 11.3272L58.2085 11.3094L58.6794 11.2718V23.78L58.3558 23.7523C58.2588 23.7523 58.1903 23.7467 58.1473 23.7338L57.8945 23.7251L57.6224 23.7338L57.3976 23.7523L57.1067 23.7806V17.4911L55.8485 17.4559L54.3897 17.3826H53.3503H52.3012C52.1279 17.3826 51.8655 17.3943 51.5158 17.419C51.1661 17.4436 50.9376 17.4559 50.8352 17.4559L49.5764 17.4911V23.7812L49.2558 23.7529C49.1503 23.7529 49.077 23.7473 49.037 23.7344L48.7861 23.7258L48.4285 23.7436L48 23.7812V11.2761L48.4552 11.3106L48.7861 11.3285L49.1 11.3106L49.577 11.273V16.526L53.3515 16.6135C53.8885 16.5913 54.517 16.5685 55.2406 16.55C55.9685 16.5328 56.5885 16.5223 57.1067 16.5223ZM66.5861 11.0006L71.9491 23.7806L71.5727 23.7523H71.4679C71.44 23.7523 71.3897 23.7467 71.32 23.7338L71.0267 23.7251L70.5794 23.743L70.0715 23.7806C69.7648 22.8624 69.4588 22.0064 69.1564 21.2083C68.8521 20.4103 68.5339 19.6239 68.1945 18.8438H63.6509L62.9455 20.6414L62.3709 22.2135C62.1739 22.781 62.0079 23.3012 61.8752 23.78L61.603 23.7523C61.5176 23.7523 61.457 23.7455 61.4218 23.7332L61.2139 23.7251L60.9939 23.7332L60.823 23.7523L60.5952 23.78L66.1782 11L66.5861 11.0006ZM67.9206 18.0784L65.9351 13.3892L63.9842 18.0784H67.9206ZM73.9382 23.7806V11.2761L74.3945 11.3106L74.7248 11.3285L75.0297 11.3106L75.5115 11.273V23.7812L75.1855 23.7529C75.0824 23.7529 75.0097 23.7473 74.9679 23.7344L74.7255 23.7258L74.4539 23.7344L74.2267 23.7529L73.9382 23.7806ZM80.3933 11.9515V16.9703L80.7721 16.9796H81.2364C81.8218 16.9796 82.3139 16.9432 82.7103 16.8742C83.3988 16.7294 83.957 16.428 84.377 15.9683C84.7964 15.5104 85.0091 14.941 85.0091 14.2637C85.0091 12.9609 84.3497 12.1955 83.0345 11.9706C82.8418 11.933 82.4709 11.9151 81.9188 11.9151C81.8273 11.9151 81.6952 11.9207 81.5248 11.933C81.3545 11.9466 81.2352 11.9515 81.1552 11.9515H80.7939H80.3933ZM78.8176 23.7806V11.2761H82.6085C83.9703 11.2761 84.9727 11.5084 85.6164 11.9681C86.26 12.4266 86.5824 13.1249 86.5824 14.061C86.5824 14.5595 86.4842 15.0082 86.2897 15.4081C86.0915 15.8062 85.8236 16.1488 85.4733 16.4336C85.123 16.717 84.7333 16.9506 84.303 17.1238C83.8715 17.2988 83.4091 17.4338 82.9139 17.5324L86.6036 22.2825L87.4655 23.3258L87.7988 23.7812L87.3812 23.7529H87.2679C87.2242 23.7529 87.1691 23.7473 87.0988 23.7344L86.7697 23.7258H86.4745L86.1855 23.7436L85.7509 23.7812C85.2279 23.0306 84.8503 22.5043 84.6145 22.1944L82.5127 19.391L81.0685 17.6587L80.3927 17.6562V23.7818L80.0691 23.7535C79.9655 23.7535 79.8945 23.7473 79.8539 23.735L79.6012 23.7264L79.2455 23.7436L78.8176 23.7806ZM98.8115 16.3029C99.3891 15.8857 99.8364 15.4556 100.158 15.0149C100.475 14.5718 100.637 14.064 100.637 13.4841C100.637 13.2013 100.578 12.9412 100.462 12.7138C100.345 12.487 100.177 12.2997 99.957 12.1567C99.857 12.092 99.7455 12.0409 99.6188 12.007C99.4952 11.9712 99.3533 11.9521 99.2061 11.9521C98.7176 11.9521 98.3424 12.1142 98.08 12.4359C97.8164 12.7631 97.6842 13.1742 97.6842 13.6746C97.6848 14.3605 98.0606 15.2386 98.8115 16.3029ZM102.658 21.1258L104.902 23.7634C104.648 23.7369 104.444 23.719 104.281 23.7079C104.116 23.695 103.962 23.6876 103.809 23.6876L103.335 23.7079L102.785 23.7424C102.552 23.4047 102.345 23.1095 102.166 22.8624C101.99 22.6159 101.819 22.3959 101.658 22.2073C101.339 22.5518 100.973 22.8624 100.556 23.1434C100.136 23.4226 99.6939 23.6309 99.2242 23.7708C98.7545 23.9113 98.2806 23.9803 97.7988 23.9803C96.8103 23.9803 95.9933 23.7042 95.3545 23.1477C94.7127 22.5888 94.3939 21.8511 94.3939 20.9267C94.3939 20.6346 94.4267 20.3641 94.4909 20.1139C94.5539 19.8637 94.6576 19.6128 94.8049 19.3645C95.0842 18.8937 95.4509 18.4709 95.9079 18.0999C96.3636 17.7289 96.9036 17.3845 97.5261 17.0695L97.6309 17.0055C97.4109 16.6579 97.2236 16.3578 97.077 16.1069C96.9285 15.8567 96.8 15.6293 96.6958 15.4173C96.5194 15.0618 96.4321 14.6415 96.4321 14.1596C96.4321 13.6136 96.5491 13.136 96.777 12.728C97.0079 12.3213 97.3358 12.0076 97.7648 11.7851C98.1915 11.5663 98.6655 11.4554 99.1824 11.4554C99.8745 11.4554 100.442 11.6292 100.885 11.9737C101.328 12.3182 101.55 12.7841 101.55 13.3757C101.55 13.8564 101.436 14.2958 101.209 14.692C100.982 15.0852 100.718 15.4161 100.41 15.6811C100.105 15.9449 99.6739 16.2795 99.1164 16.685L99.7545 17.5348L100.601 18.6496C100.748 18.8419 100.89 19.0151 101.016 19.1722C101.138 19.3288 101.239 19.4508 101.315 19.5309L102.264 20.6315C102.599 20.1354 102.968 19.5407 103.379 18.853C103.727 18.2491 104.065 17.6328 104.392 17.0024C104.547 17.2741 104.773 17.5243 105.077 17.7573C104.259 19.036 103.45 20.157 102.658 21.1258ZM97.9406 17.4553L97.8588 17.5009L97.7982 17.5422C97.1818 17.9366 96.6994 18.3649 96.3576 18.8277C96.0164 19.2967 95.84 19.8513 95.84 20.5089C95.84 21.0037 95.9594 21.4561 96.1879 21.8702C96.4194 22.2849 96.7358 22.6042 97.1442 22.8328C97.5503 23.0627 97.9921 23.1773 98.4691 23.1773C99.0812 23.1773 99.6394 23.0232 100.138 22.7126C100.636 22.3977 101.025 22.1038 101.301 21.8252C99.9 20.0664 98.7836 18.609 97.9406 17.4553ZM112.139 21.3125L112.326 21.3162C112.712 21.9596 113.124 22.4372 113.576 22.7521C114.022 23.0744 114.571 23.2309 115.215 23.2309C115.685 23.2309 116.112 23.1095 116.492 22.8685C116.867 22.6282 117.161 22.3004 117.381 21.8807C117.597 21.4647 117.703 21.0222 117.703 20.5582C117.703 19.8125 117.476 19.264 117.028 18.914C116.576 18.5603 115.886 18.1973 114.959 17.8232C114.028 17.4479 113.321 17.0332 112.837 16.5833C112.35 16.1341 112.104 15.442 112.104 14.5133C112.104 13.3862 112.479 12.5209 113.232 11.9121C113.982 11.3063 114.934 11 116.079 11C116.553 11 117.019 11.0709 117.476 11.2138C117.94 11.3587 118.324 11.5713 118.63 11.8572C118.555 12.0427 118.395 12.5431 118.152 13.3566H117.975C117.802 12.8623 117.518 12.4759 117.128 12.1912C116.738 11.9078 116.279 11.7685 115.753 11.7685C115.348 11.7685 114.972 11.8566 114.627 12.0359C114.284 12.2165 114.008 12.4685 113.807 12.8001C113.6 13.1304 113.501 13.4989 113.501 13.9038C113.501 14.6513 113.722 15.1949 114.175 15.54C114.622 15.8882 115.318 16.2505 116.264 16.6375C117.212 17.0209 117.926 17.4307 118.408 17.8664C118.892 18.3021 119.135 18.9528 119.135 19.8261C119.135 20.4682 119.024 21.0475 118.805 21.5596C118.584 22.0711 118.264 22.5136 117.851 22.8821C117.436 23.25 116.966 23.5298 116.434 23.7215C116.173 23.8096 115.901 23.8798 115.616 23.9297C115.33 23.9741 115.033 24 114.714 24C114.453 24 114.203 23.9772 113.962 23.9353C113.719 23.8965 113.438 23.8194 113.11 23.7128C112.528 23.5193 112.092 23.2593 111.799 22.9363C111.939 22.5382 112.054 21.999 112.139 21.3125ZM130.355 11.2785L126.302 15.2701L124.77 16.8329L126.276 18.5732L128.016 20.5816L129.12 21.8603L130.572 23.6913V23.7812L130.162 23.7529H130.049C130.013 23.7529 129.961 23.7473 129.89 23.7344L129.585 23.7258L129.122 23.7436L128.585 23.7812C128.124 23.0972 127.716 22.5419 127.356 22.1105L123.443 17.459C123.367 17.3943 123.283 17.3647 123.192 17.3647C123.182 17.3647 123.173 17.366 123.164 17.3758C123.155 17.3857 123.145 17.3937 123.14 17.4011V23.7812L122.816 23.7529C122.713 23.7529 122.641 23.7473 122.599 23.7344L122.352 23.7258L121.993 23.7436L121.565 23.7812V11.2724L122.019 11.31L122.352 11.3278L122.662 11.31L123.141 11.2755V16.9253C123.176 16.95 123.205 16.9605 123.226 16.9605C123.321 16.9605 123.442 16.9118 123.588 16.8187C123.696 16.7355 123.819 16.6234 123.968 16.4835C124.118 16.3442 124.309 16.1569 124.535 15.9227L128.938 11.2755L129.352 11.31L129.656 11.3278L129.938 11.31L130.355 11.2785ZM132.567 23.7806V11.2761L133.021 11.3106L133.353 11.3285L133.659 11.3106L134.14 11.273V23.7812L133.816 23.7529C133.711 23.7529 133.641 23.7473 133.597 23.7344L133.353 23.7258L133.082 23.7344L132.858 23.7529L132.567 23.7806ZM148 11.2761V23.7812H147.458C147.232 23.4731 146.921 23.1009 146.53 22.6689L138.799 13.9297L138.627 13.9229V23.7812L138.357 23.7436L138.126 23.7258L137.952 23.7344L137.813 23.7529L137.625 23.7812V11.2761H138.323L146.815 20.6907H147.001V11.2724L147.279 11.31L147.499 11.3278L147.705 11.31L148 11.2761Z" fill="#002331"/>
<path d="M48 33.8793V27.1487L48.2236 27.1676L48.3842 27.1767L48.5352 27.1676L48.7709 27.1467V33.8787L48.6121 33.8643C48.5612 33.8643 48.5255 33.8598 48.5055 33.8539L48.3848 33.848L48.2527 33.8539L48.143 33.8643L48 33.8793ZM55.8303 27.1487V33.8787H55.5649C55.4552 33.713 55.3031 33.5122 55.1128 33.2793L51.3352 28.5777L51.2509 28.5731V33.8787L51.12 33.8598L51.0085 33.848L50.9212 33.8539L50.8521 33.8643L50.763 33.8787V27.1487H51.1055L55.251 32.2149H55.3419V27.1474L55.477 27.1676L55.5837 27.1774L55.6873 27.1676L55.8303 27.1487ZM62.9189 27.1487V33.8787H62.6528C62.5437 33.713 62.3904 33.5122 62.2001 33.2793L58.4231 28.5777L58.3407 28.5731V33.8787L58.2079 33.8598L58.0958 33.848L58.011 33.8539L57.9419 33.8643L57.8504 33.8787V27.1487H58.1916L62.3389 32.2149H62.4292V27.1474L62.5637 27.1676L62.6722 27.1774L62.774 27.1676L62.9189 27.1487ZM70.1213 30.4436C70.1213 30.1194 70.1062 29.8462 70.0759 29.6225C70.0486 29.3981 69.9941 29.1698 69.9086 28.9338C69.8232 28.697 69.711 28.4792 69.5698 28.2776C69.425 28.0755 69.2589 27.9059 69.0704 27.765C68.8813 27.6261 68.6698 27.5185 68.4371 27.4402C68.205 27.3626 67.9753 27.3267 67.7492 27.3267C67.3722 27.3267 67.028 27.4044 66.7207 27.5609C66.4141 27.7161 66.1534 27.9411 65.9383 28.2307C65.7268 28.5203 65.5643 28.8692 65.4516 29.2833C65.3425 29.6968 65.2874 30.1429 65.2874 30.6308C65.2874 31.1082 65.3474 31.5341 65.4637 31.911C65.5825 32.286 65.7534 32.6082 65.9753 32.875C66.1995 33.1404 66.4571 33.3374 66.7498 33.4711C67.0438 33.6041 67.3516 33.6713 67.6728 33.6713C68.085 33.6713 68.4474 33.5709 68.7589 33.37C69.0704 33.1711 69.3244 32.9089 69.5238 32.5828C69.722 32.2586 69.8668 31.9006 69.968 31.5119C70.071 31.1238 70.1213 30.7664 70.1213 30.4436ZM67.648 33.9974C67.1741 33.9974 66.7353 33.9146 66.3365 33.7515C65.9377 33.5865 65.5959 33.3511 65.3134 33.0413C65.0298 32.7328 64.8116 32.363 64.6583 31.9299C64.5819 31.7115 64.5243 31.4877 64.4862 31.2588C64.4498 31.0306 64.4316 30.7814 64.4316 30.5127C64.4316 29.9851 64.514 29.507 64.6753 29.0714C64.8365 28.6344 65.0692 28.262 65.3692 27.9476C65.6613 27.645 66.0025 27.4102 66.3922 27.2465C66.7844 27.0815 67.2062 27 67.6674 27C68.0874 27 68.4977 27.0665 68.8935 27.1989C69.2935 27.332 69.6486 27.5361 69.9583 27.8107C70.2698 28.0866 70.5171 28.4368 70.7001 28.8653C70.885 29.2918 70.9741 29.7914 70.9741 30.3614C70.9741 31.0736 70.8335 31.7036 70.5523 32.256C70.2741 32.8052 69.8753 33.2343 69.3674 33.5369C68.8595 33.8435 68.2856 33.9974 67.648 33.9974ZM75.245 31.6169L76.1596 28.9468L76.6814 27.3026L76.7402 27.1467L76.9268 27.167L77.0674 27.1761L77.1929 27.167L77.3868 27.148C77.3123 27.3091 77.1541 27.6978 76.9135 28.3142L76.0808 30.4912C76.0632 30.5388 75.9668 30.8036 75.785 31.281C75.6371 31.6801 75.5511 31.9169 75.5226 31.9899C75.4583 32.1595 75.3814 32.3702 75.2911 32.6258C75.0923 33.1808 74.9499 33.5982 74.8662 33.878L74.7656 33.8487H74.6899H74.6038L74.5068 33.8754L73.7971 32.1732L72.9753 30.0392L72.2026 28.0266C72.0395 27.5955 71.922 27.3026 71.8438 27.1474L72.0838 27.1683L72.2638 27.1774L72.4462 27.1663L72.6995 27.1461L73.0305 28.0963L73.6068 29.8201L74.6705 32.8097L74.7493 32.8058L74.9953 32.2365C75.0444 32.1236 75.0905 32.0082 75.1383 31.8941C75.1735 31.7969 75.208 31.7049 75.245 31.6169ZM80.1723 27.002H79.9729L77.2474 33.8793L77.3571 33.865L77.4426 33.8546L77.5475 33.8487L77.6511 33.8546C77.6693 33.8604 77.6972 33.865 77.7402 33.865L77.8717 33.8793C77.9384 33.6211 78.0178 33.3406 78.1147 33.0354L78.3959 32.1902L78.739 31.2236H80.9566C81.1232 31.643 81.2796 32.0669 81.4287 32.4954C81.5754 32.9245 81.7244 33.3856 81.8735 33.8793L82.1208 33.8611L82.3408 33.8493L82.4851 33.8552C82.5208 33.8611 82.542 33.8663 82.556 33.8663H82.6081L82.7917 33.88L80.1723 27.002ZM80.8257 30.8075H78.9032L79.8547 28.2874L80.8257 30.8075ZM85.4348 27.6202V33.8878L85.2772 33.8826C85.2251 33.8826 85.193 33.88 85.1705 33.8722L85.0523 33.8683L84.8748 33.8787L84.6651 33.897V27.6196C84.0602 27.6196 83.4232 27.66 82.7523 27.7389L82.7687 27.5798L82.7784 27.4441L82.7748 27.3502L82.7651 27.2713L82.7523 27.148H87.259L87.2451 27.3254L87.2354 27.4468L87.2451 27.5687L87.259 27.7422L86.4172 27.6607C86.3057 27.6607 86.1875 27.6568 86.0584 27.6476C85.7323 27.632 85.5263 27.6202 85.4348 27.6202ZM88.076 33.8793V27.1487L88.2984 27.1676L88.4596 27.1767L88.6112 27.1676L88.8445 27.1467V33.8787L88.6869 33.8643C88.6336 33.8643 88.6015 33.8598 88.5802 33.8539L88.4609 33.848L88.3281 33.8539L88.2166 33.8643L88.076 33.8793ZM96.0185 30.4436C96.0185 30.1194 96.0057 29.8462 95.9773 29.6225C95.9476 29.3981 95.893 29.1698 95.8094 28.9338C95.7239 28.697 95.613 28.4792 95.4706 28.2776C95.3276 28.0755 95.1603 27.9059 94.9724 27.765C94.7827 27.6261 94.5712 27.5185 94.3379 27.4402C94.1045 27.3626 93.876 27.3267 93.65 27.3267C93.2724 27.3267 92.9312 27.4044 92.6215 27.5609C92.3172 27.7161 92.053 27.9411 91.8391 28.2307C91.6294 28.5203 91.4663 28.8692 91.3548 29.2833C91.2433 29.6968 91.1881 30.1429 91.1881 30.6308C91.1881 31.1082 91.2488 31.5341 91.3633 31.911C91.4839 32.286 91.6536 32.6082 91.876 32.875C92.1033 33.1404 92.3578 33.3374 92.6524 33.4711C92.9445 33.6041 93.2536 33.6713 93.5742 33.6713C93.9888 33.6713 94.3506 33.5709 94.6597 33.37C94.9724 33.1711 95.227 32.9089 95.4245 32.5828C95.6221 32.2586 95.7712 31.9006 95.8706 31.5119C95.97 31.1238 96.0185 30.7664 96.0185 30.4436ZM93.5482 33.9974C93.0724 33.9974 92.6354 33.9146 92.2366 33.7515C91.8391 33.5865 91.4954 33.3511 91.213 33.0413C90.93 32.7328 90.7124 32.363 90.5584 31.9299C90.4803 31.7115 90.4233 31.4877 90.3869 31.2588C90.3512 31.0306 90.3324 30.7814 90.3324 30.5127C90.3324 29.9851 90.4142 29.507 90.5736 29.0714C90.7372 28.6344 90.9688 28.262 91.2718 27.9476C91.5621 27.645 91.9003 27.4102 92.2924 27.2465C92.6839 27.0815 93.1069 27 93.5663 27C93.9888 27 94.396 27.0665 94.7948 27.1989C95.1936 27.332 95.5464 27.5361 95.8591 27.8107C96.1694 28.0866 96.4191 28.4368 96.6003 28.8653C96.7839 29.2918 96.8748 29.7914 96.8748 30.3614C96.8748 31.0736 96.7361 31.7036 96.4536 32.256C96.1718 32.8052 95.7767 33.2343 95.2676 33.5369C94.7603 33.8435 94.1851 33.9974 93.5482 33.9974ZM103.476 27.1487V33.8787H103.21C103.1 33.713 102.949 33.5122 102.758 33.2793L98.9809 28.5777L98.8991 28.5731V33.8787L98.7652 33.8598L98.6536 33.848L98.5658 33.8539L98.4997 33.8643L98.4112 33.8787V27.1487H98.75L102.897 32.2149H102.989V27.1474L103.123 27.1676L103.231 27.1774L103.334 27.1676L103.476 27.1487ZM107.588 33.8793V27.1487L107.811 27.1676L107.974 27.1767L108.125 27.1676L108.356 27.1467V33.8787L108.199 33.8643C108.148 33.8643 108.114 33.8598 108.092 33.8539L107.974 33.848L107.84 33.8539L107.729 33.8643L107.588 33.8793ZM115.42 27.1487V33.8787H115.153C115.043 33.713 114.893 33.5122 114.7 33.2793L110.923 28.5777L110.842 28.5731V33.8787L110.709 33.8598L110.595 33.848L110.511 33.8539L110.442 33.8643L110.353 33.8787V27.1487H110.693L114.839 32.2149H114.93V27.1474L115.068 27.1676L115.176 27.1774L115.276 27.1676L115.42 27.1487ZM117.124 32.5502L117.215 32.5528C117.402 32.8978 117.605 33.1561 117.823 33.3276C118.043 33.4978 118.31 33.5819 118.627 33.5819C118.857 33.5819 119.065 33.5167 119.248 33.3882C119.432 33.2585 119.576 33.0811 119.684 32.8574C119.788 32.6337 119.839 32.3956 119.839 32.1452C119.839 31.7441 119.73 31.4506 119.51 31.2601C119.288 31.0697 118.953 30.8747 118.498 30.6738C118.046 30.471 117.699 30.2505 117.462 30.0066C117.224 29.7653 117.105 29.3942 117.105 28.8927C117.105 28.2861 117.29 27.8218 117.655 27.4931C118.023 27.167 118.486 27.0026 119.047 27.0026C119.277 27.0026 119.505 27.0417 119.729 27.1161C119.954 27.195 120.142 27.3091 120.295 27.4631C120.256 27.5622 120.178 27.8329 120.057 28.2692H119.971C119.887 28.0057 119.75 27.795 119.558 27.6444C119.367 27.4918 119.146 27.4148 118.887 27.4148C118.688 27.4148 118.506 27.4631 118.338 27.5596C118.169 27.6568 118.037 27.7924 117.937 27.9718C117.836 28.1492 117.784 28.3468 117.784 28.5659C117.784 28.9664 117.897 29.2605 118.114 29.4477C118.334 29.6336 118.673 29.8299 119.137 30.036C119.599 30.244 119.951 30.4638 120.184 30.6973C120.422 30.9327 120.539 31.2836 120.539 31.7532C120.539 32.0995 120.487 32.41 120.377 32.6858C120.269 32.9617 120.113 33.1978 119.914 33.3967C119.709 33.5963 119.48 33.7456 119.221 33.8493C119.092 33.897 118.958 33.9335 118.821 33.9602C118.68 33.985 118.534 34 118.38 34C118.253 34 118.131 33.9876 118.011 33.9641C117.896 33.9439 117.756 33.9022 117.594 33.8441C117.311 33.7404 117.099 33.6009 116.957 33.4241C117.027 33.2089 117.083 32.918 117.124 32.5502ZM124.081 27.6202V33.8878L123.925 33.8826C123.874 33.8826 123.837 33.88 123.819 33.8722L123.701 33.8683L123.522 33.8787L123.315 33.897V27.6196C122.71 27.6196 122.072 27.66 121.402 27.7389L121.419 27.5798L121.426 27.4441L121.421 27.3502L121.413 27.2713L121.4 27.148H125.907L125.891 27.3254L125.881 27.4468L125.891 27.5687L125.907 27.7422L125.064 27.6607C124.954 27.6607 124.832 27.6568 124.703 27.6476C124.382 27.632 124.173 27.6202 124.081 27.6202ZM126.725 33.8793V27.1487L126.948 27.1676L127.108 27.1767L127.259 27.1676L127.495 27.1467V33.8787L127.335 33.8643C127.283 33.8643 127.248 33.8598 127.227 33.8539L127.109 33.848L126.976 33.8539L126.866 33.8643L126.725 33.8793ZM131.471 27.6202V33.8878L131.312 33.8826C131.262 33.8826 131.227 33.88 131.205 33.8722L131.09 33.8683L130.911 33.8787L130.702 33.897V27.6196C130.097 27.6196 129.459 27.66 128.79 27.7389L128.804 27.5798L128.813 27.4441L128.81 27.3502L128.802 27.2713L128.79 27.148H133.297L133.28 27.3254L133.27 27.4468L133.28 27.5687L133.297 27.7422L132.452 27.6607C132.342 27.6607 132.225 27.6568 132.093 27.6476C131.768 27.632 131.561 27.6202 131.471 27.6202ZM134.385 27.1487V30.9164C134.385 31.3586 134.42 31.7421 134.482 32.0675C134.545 32.3923 134.651 32.665 134.798 32.8867C134.942 33.1065 135.144 33.2708 135.392 33.3785C135.514 33.4326 135.653 33.4711 135.81 33.5004C135.967 33.5304 136.134 33.5422 136.315 33.5422C136.971 33.5422 137.45 33.3041 137.753 32.8228C138.05 32.3421 138.203 31.6743 138.203 30.8147V27.1467L138.341 27.167L138.448 27.1761L138.543 27.167L138.692 27.148V31.0625C138.692 31.6991 138.587 32.2371 138.383 32.6721C138.178 33.1104 137.88 33.4404 137.491 33.6609C137.104 33.8839 136.656 33.9967 136.14 33.9967C135.845 33.9967 135.586 33.97 135.353 33.9191C135.123 33.8689 134.922 33.7933 134.745 33.6928C134.57 33.595 134.404 33.4652 134.245 33.3041C133.996 33.055 133.831 32.7419 133.744 32.3676C133.704 32.1667 133.67 31.9632 133.647 31.7578C133.627 31.5536 133.615 31.3286 133.615 31.0847V27.1467L133.838 27.167L134.001 27.1761L134.148 27.167L134.385 27.1487ZM142.74 27.6202V33.8878L142.585 33.8826C142.533 33.8826 142.497 33.88 142.478 33.8722L142.36 33.8683L142.179 33.8787L141.97 33.897V27.6196C141.368 27.6196 140.73 27.66 140.058 27.7389L140.075 27.5798L140.086 27.4441L140.08 27.3502L140.07 27.2713L140.058 27.148H144.567L144.548 27.3254L144.542 27.4468L144.548 27.5687L144.567 27.7422L143.722 27.6607C143.61 27.6607 143.493 27.6568 143.364 27.6476C143.038 27.632 142.831 27.6202 142.74 27.6202ZM145.613 27.6124V30.0803H146.968H147.204L147.463 30.0536L147.744 30.0288L147.728 30.1788L147.718 30.2903L147.728 30.3908L147.744 30.5649L147.463 30.5388L147.204 30.514H146.968H145.613V33.3863C145.668 33.3863 145.903 33.3778 146.318 33.368C146.732 33.355 147.022 33.3485 147.194 33.3485C147.312 33.3485 147.431 33.3406 147.543 33.3282C147.657 33.3132 147.81 33.2904 148 33.2598L147.985 33.3648L147.973 33.4672L147.967 33.5585C147.967 33.6198 147.97 33.6674 147.978 33.7006L148 33.8506H144.843V27.1487H147.943L147.927 27.3267L147.919 27.4441L147.927 27.5641L147.943 27.7357C147.788 27.7024 147.671 27.6763 147.592 27.6659C147.451 27.6437 147.308 27.6326 147.158 27.6326L146.285 27.6131H145.613V27.6124Z" fill="#005C62"/>
<defs>
<linearGradient id="paint0_linear_362_6289" x1="21.1957" y1="20.7917" x2="32.9777" y2="20.7917" gradientUnits="userSpaceOnUse">
<stop stop-color="#98D0BF"/>
<stop offset="0.09" stop-color="#4CBAAF"/>
<stop offset="0.16" stop-color="#23A59B"/>
<stop offset="0.24" stop-color="#0A8D83"/>
<stop offset="0.44" stop-color="#004F48"/>
<stop offset="0.93" stop-color="#000005"/>
<stop offset="1" stop-color="#010005"/>
</linearGradient>
<linearGradient id="paint1_linear_362_6289" x1="16.5188" y1="19.2744" x2="24.2104" y2="19.2744" gradientUnits="userSpaceOnUse">
<stop stop-color="#AFDBD9"/>
<stop offset="0.11" stop-color="#70C5C6"/>
<stop offset="0.21" stop-color="#46B0AA"/>
<stop offset="0.35" stop-color="#1F8589"/>
<stop offset="0.53" stop-color="#005355"/>
<stop offset="0.85" stop-color="#000211"/>
<stop offset="1" stop-color="#000006"/>
</linearGradient>
<linearGradient id="paint2_linear_362_6289" x1="5.06625" y1="20" x2="36.237" y2="20" gradientUnits="userSpaceOnUse">
<stop stop-color="#3CBAD9"/>
<stop offset="0.07" stop-color="#2FB7D7"/>
<stop offset="0.09" stop-color="#2BB1D1"/>
<stop offset="0.18" stop-color="#008CAD"/>
<stop offset="0.26" stop-color="#006D84"/>
<stop offset="0.45" stop-color="#003546"/>
<stop offset="0.68" stop-color="#000F27"/>
<stop offset="0.8" stop-color="#010005"/>
<stop offset="0.82" stop-color="#010005"/>
<stop offset="0.84" stop-color="#010005"/>
<stop offset="0.85" stop-color="#010005"/>
<stop offset="0.98" stop-color="#010005"/>
<stop offset="1" stop-color="#010005"/>
</linearGradient>
</defs>
</svg>
