<svg width="54" height="53" viewBox="0 0 54 53" fill="none" xmlns="http://www.w3.org/2000/svg">
<g clip-path="url(#clip0_415_2352)">
<path d="M53.7414 26.4046C53.7414 11.8217 41.9197 0 27.3368 0C12.7539 0 0.93219 11.8217 0.93219 26.4046C0.93219 40.9875 12.7539 52.8092 27.3368 52.8092C41.9197 52.8092 53.7414 40.9875 53.7414 26.4046Z" fill="white"/>
<path d="M37.066 18.7052L33.5492 35.3793C33.5492 35.3793 33.0575 36.5355 31.7048 35.9804L23.5527 30.1129C24.6483 29.1867 33.1487 22 33.5204 21.6742C34.0951 21.1698 33.7385 20.8696 33.0706 21.2511L20.5148 28.7493L15.6708 27.2158C15.6708 27.2158 14.9081 26.9613 14.8347 26.4063C14.7609 25.8514 15.6955 25.5508 15.6955 25.5508L35.4431 18.2657C35.4431 18.2657 37.066 17.5951 37.066 18.7052Z" fill="#1F93AE"/>
</g>
<defs>
<clipPath id="clip0_415_2352">
<rect width="52.8092" height="52.8092" fill="white" transform="translate(0.93219)"/>
</clipPath>
</defs>
</svg>
