<svg width="53" height="53" viewBox="0 0 53 53" fill="none" xmlns="http://www.w3.org/2000/svg">
<g clip-path="url(#clip0_415_2348)">
<path d="M52.8092 26.4046C52.8092 11.8217 40.9875 0 26.4046 0C11.8217 0 0 11.8217 0 26.4046C0 40.9875 11.8217 52.8092 26.4046 52.8092C40.9875 52.8092 52.8092 40.9875 52.8092 26.4046Z" fill="white"/>
<path fill-rule="evenodd" clip-rule="evenodd" d="M35.2685 17.5337C32.917 15.1907 29.7897 13.8998 26.458 13.8984C19.5928 13.8984 14.0056 19.4588 14.0028 26.293C14.0018 28.4777 14.5754 30.6103 15.6653 32.4902L13.8983 38.9133L20.501 37.1895C22.3204 38.1772 24.3686 38.6978 26.453 38.6983H26.4583C33.3227 38.6983 38.9106 33.1375 38.9132 26.303C38.9146 22.9908 37.6202 19.8766 35.2685 17.5337ZM26.458 36.605H26.4538C24.5962 36.6042 22.7744 36.1073 21.1849 35.1689L20.807 34.9455L16.8888 35.9685L17.9346 32.1667L17.6883 31.7769C16.652 30.1364 16.1049 28.2404 16.1057 26.2939C16.108 20.6134 20.752 15.9919 26.4622 15.9919C29.2273 15.9929 31.8266 17.0659 33.7811 19.0133C35.7356 20.9607 36.8113 23.5493 36.8104 26.3022C36.8079 31.9831 32.164 36.605 26.458 36.605ZM32.1365 28.8887C31.8254 28.7337 30.2953 27.9846 30.0098 27.8811C29.7248 27.7777 29.5172 27.7262 29.3098 28.0362C29.1024 28.3461 28.506 29.0438 28.3244 29.2505C28.1428 29.4571 27.9614 29.4831 27.6501 29.328C27.3388 29.1731 26.3361 28.8458 25.1474 27.7907C24.2222 26.9694 23.5977 25.9552 23.4161 25.6453C23.2347 25.335 23.4145 25.1835 23.5525 25.0131C23.8895 24.5967 24.2268 24.1602 24.3305 23.9537C24.4344 23.7469 24.3823 23.566 24.3045 23.411C24.2268 23.2561 23.6045 21.7316 23.3452 21.1113C23.0924 20.5076 22.836 20.5891 22.6449 20.5796C22.4636 20.5706 22.2559 20.5688 22.0483 20.5688C21.841 20.5688 21.5038 20.6462 21.2184 20.9565C20.9332 21.2666 20.1294 22.0158 20.1294 23.5403C20.1294 25.0648 21.2445 26.5375 21.4 26.7443C21.5556 26.9509 23.5946 30.0793 26.7164 31.4208C27.4589 31.7402 28.0385 31.9306 28.4906 32.0733C29.2362 32.3091 29.9145 32.2758 30.4508 32.1961C31.0488 32.1071 32.2919 31.4467 32.5515 30.7233C32.8107 29.9998 32.8107 29.3797 32.7329 29.2505C32.6552 29.1212 32.4475 29.0438 32.1365 28.8887Z" fill="#1F93AE"/>
</g>
<defs>
<clipPath id="clip0_415_2348">
<rect width="52.8092" height="52.8092" fill="white"/>
</clipPath>
</defs>
</svg>
