<svg width="54" height="53" viewBox="0 0 54 53" fill="none" xmlns="http://www.w3.org/2000/svg">
<g clip-path="url(#clip0_415_2356)">
<path d="M53.6736 26.4046C53.6736 11.8217 41.8518 0 27.269 0C12.6861 0 0.86438 11.8217 0.86438 26.4046C0.86438 40.9875 12.6861 52.8092 27.269 52.8092C41.8518 52.8092 53.6736 40.9875 53.6736 26.4046Z" fill="white"/>
<g clip-path="url(#clip1_415_2356)">
<g clip-path="url(#clip2_415_2356)">
<path d="M27.4518 15.1769C31.2091 15.1769 31.6508 15.1938 33.1348 15.2613C34.5092 15.3218 35.2519 15.5511 35.7485 15.7466C36.4068 16.0027 36.8766 16.3051 37.3676 16.796C37.8599 17.2884 38.1666 17.7568 38.417 18.4151C38.6069 18.9117 38.8418 19.6544 38.9037 21.0273C38.9698 22.5128 38.9881 22.9545 38.9881 26.7117C38.9881 30.469 38.9698 30.9107 38.9037 32.3947C38.8418 33.7691 38.6125 34.5118 38.417 35.0084C38.1923 35.6196 37.8337 36.1728 37.3676 36.6275C36.8752 37.1198 36.4068 37.4265 35.7499 37.6768C35.2519 37.8668 34.5092 38.1017 33.1363 38.1622C31.6508 38.2297 31.2091 38.2466 27.4533 38.2466C23.6946 38.2466 23.2529 38.2297 21.7688 38.1622C20.3945 38.1017 19.6518 37.8724 19.1552 37.6768C18.544 37.4522 17.9908 37.0937 17.5361 36.6275C17.0681 36.1743 16.7093 35.6206 16.4867 35.0084C16.2968 34.5118 16.0619 33.7691 16.0014 32.3962C15.9339 30.9107 15.917 30.469 15.917 26.7117C15.917 22.9545 15.9339 22.5128 16.0014 21.0287C16.0619 19.6544 16.2912 18.9117 16.4867 18.4151C16.7428 17.7568 17.0452 17.287 17.5361 16.796C18.0285 16.3037 18.4969 15.997 19.1552 15.7466C19.6518 15.5567 20.3945 15.3218 21.7688 15.2599C23.2529 15.1882 23.7002 15.1755 27.4518 15.1755V15.1769ZM27.4518 12.6421C23.6327 12.6421 23.153 12.659 21.6507 12.7265C20.1568 12.7926 19.1327 13.0331 18.2395 13.3792C17.3125 13.7365 16.5318 14.2232 15.7496 15.0039C15.0355 15.7075 14.4813 16.5567 14.1249 17.4937C13.7789 18.387 13.5383 19.4082 13.4722 20.912C13.4047 22.4073 13.3878 22.887 13.3878 26.7061C13.3878 30.5253 13.4047 31.0049 13.4722 32.5073C13.5383 34.004 13.7789 35.0252 14.1249 35.9241C14.4822 36.8511 14.9689 37.6318 15.7496 38.4139C16.4532 39.1281 17.3024 39.6823 18.2395 40.0387C19.1327 40.3847 20.1554 40.6253 21.6577 40.6928C23.1572 40.7589 23.6313 40.7758 27.4575 40.7758C31.2822 40.7758 31.7563 40.7589 33.2586 40.6914C34.7553 40.6253 35.7766 40.3847 36.6755 40.0387C37.6143 39.6858 38.4642 39.1311 39.1653 38.4139C39.8795 37.7104 40.4336 36.8612 40.79 35.9241C41.1361 35.0309 41.3766 34.0096 41.4427 32.5059C41.5102 31.0049 41.5271 30.5309 41.5271 26.7061C41.5271 22.8813 41.5102 22.4073 41.4427 20.905C41.3766 19.4082 41.1361 18.387 40.79 17.4881C40.4371 16.5493 39.8825 15.6994 39.1653 14.9983C38.4617 14.2841 37.6125 13.73 36.6755 13.3736C35.7822 13.0275 34.761 12.787 33.2572 12.7209C31.7535 12.659 31.271 12.6421 27.4518 12.6421Z" fill="#1F93AE"/>
<path d="M27.4504 19.4869C26.5015 19.487 25.5619 19.6741 24.6852 20.0375C23.8086 20.4008 23.0121 20.9332 22.3412 21.6043C20.9863 22.9598 20.2253 24.7979 20.2257 26.7144C20.2261 28.6309 20.9878 30.4687 22.3432 31.8236C23.6986 33.1785 25.5368 33.9395 27.4533 33.9391C29.3697 33.9388 31.2076 33.1771 32.5625 31.8217C33.9174 30.4662 34.6784 28.6281 34.678 26.7116C34.6776 24.7951 33.9159 22.9573 32.5605 21.6024C31.2051 20.2475 29.3669 19.4865 27.4504 19.4869ZM27.4504 31.3958C26.8278 31.4066 26.2093 31.2933 25.6309 31.0625C25.0525 30.8317 24.5259 30.488 24.0818 30.0515C23.6377 29.615 23.2849 29.0944 23.0441 28.5202C22.8033 27.9459 22.6793 27.3294 22.6793 26.7067C22.6793 26.0839 22.8033 25.4675 23.0441 24.8932C23.2849 24.3189 23.6377 23.7983 24.0818 23.3618C24.5259 22.9253 25.0525 22.5816 25.6309 22.3508C26.2093 22.12 26.8278 22.0067 27.4504 22.0175C28.68 22.0388 29.852 22.5422 30.7141 23.4193C31.5761 24.2963 32.0591 25.4769 32.0591 26.7067C32.0591 27.9364 31.5761 29.117 30.7141 29.9941C29.852 30.8712 28.68 31.3746 27.4504 31.3958ZM34.9607 20.8823C35.1862 20.8888 35.4107 20.85 35.621 20.7682C35.8312 20.6864 36.0229 20.5633 36.1847 20.4061C36.3465 20.2489 36.4751 20.0608 36.563 19.8531C36.6508 19.6453 36.696 19.422 36.696 19.1964C36.696 18.9708 36.6508 18.7475 36.563 18.5397C36.4751 18.3319 36.3465 18.1439 36.1847 17.9867C36.0229 17.8295 35.8312 17.7063 35.621 17.6245C35.4107 17.5427 35.1862 17.504 34.9607 17.5105C34.522 17.5231 34.1055 17.7063 33.7997 18.0211C33.4939 18.3359 33.3228 18.7575 33.3228 19.1964C33.3228 19.6353 33.4939 20.0569 33.7997 20.3717C34.1055 20.6864 34.522 20.8696 34.9607 20.8823Z" fill="#1F93AE"/>
</g>
</g>
</g>
<defs>
<clipPath id="clip0_415_2356">
<rect width="52.8092" height="52.8092" fill="white" transform="translate(0.86438)"/>
</clipPath>
<clipPath id="clip1_415_2356">
<rect width="30.5763" height="28.0282" fill="white" transform="translate(11.9835 12.5088)"/>
</clipPath>
<clipPath id="clip2_415_2356">
<rect width="30.9471" height="28.1337" fill="white" transform="translate(11.9835 12.6421)"/>
</clipPath>
</defs>
</svg>
