<svg width="18" height="18" viewBox="0 0 18 18" fill="none" xmlns="http://www.w3.org/2000/svg">
<path fill-rule="evenodd" clip-rule="evenodd" d="M14.706 3.28869C13.192 1.78026 11.1786 0.949137 9.03354 0.948242C4.61354 0.948242 1.01634 4.52817 1.01455 8.92822C1.01392 10.3347 1.38318 11.7078 2.08492 12.9181L0.947266 17.0535L5.19825 15.9437C6.36964 16.5796 7.6883 16.9147 9.03032 16.9151H9.03372C13.4532 16.9151 17.0508 13.3349 17.0525 8.93466C17.0534 6.80215 16.2201 4.79713 14.706 3.28869ZM9.03354 15.5673H9.03085C7.83486 15.5668 6.66195 15.2469 5.63855 14.6427L5.39527 14.4989L2.87265 15.1576L3.54594 12.7098L3.38739 12.4589C2.72019 11.4027 2.36793 10.182 2.36847 8.92876C2.3699 5.27152 5.35984 2.29607 9.03622 2.29607C10.8165 2.2967 12.49 2.98753 13.7484 4.24132C15.0067 5.49512 15.6992 7.16174 15.6987 8.93413C15.6971 12.5916 12.7072 15.5673 9.03354 15.5673ZM12.6895 10.5994C12.4892 10.4996 11.5041 10.0173 11.3203 9.95064C11.1368 9.88407 11.0031 9.85096 10.8696 10.0505C10.736 10.25 10.3521 10.6993 10.2352 10.8323C10.1182 10.9654 10.0015 10.9821 9.80104 10.8822C9.60062 10.7825 8.95507 10.5718 8.18971 9.89248C7.59409 9.36369 7.19199 8.71071 7.07505 8.51118C6.95829 8.31139 7.07407 8.21386 7.16291 8.10417C7.37989 7.83611 7.59704 7.55507 7.66379 7.42211C7.73071 7.28897 7.69716 7.17248 7.64706 7.07272C7.59704 6.97295 7.19638 5.99143 7.02942 5.5921C6.86667 5.20343 6.70159 5.25586 6.57856 5.24978C6.4618 5.24396 6.32812 5.2428 6.19445 5.2428C6.06096 5.2428 5.84389 5.29264 5.66011 5.49243C5.47651 5.69205 4.959 6.1744 4.959 7.15593C4.959 8.13745 5.67693 9.0856 5.77705 9.21874C5.87727 9.35179 7.19002 11.3659 9.19987 12.2296C9.67793 12.4352 10.0511 12.5578 10.3422 12.6497C10.8222 12.8015 11.2589 12.7801 11.6042 12.7288C11.9892 12.6714 12.7896 12.2463 12.9567 11.7806C13.1236 11.3148 13.1236 10.9155 13.0735 10.8323C13.0234 10.7491 12.8898 10.6993 12.6895 10.5994Z" fill="white"/>
</svg>