<?xml version="1.0" encoding="utf-8"?><svg viewBox="0 0 502.66 502.66" xmlns="http://www.w3.org/2000/svg" xmlns:xlink="http://www.w3.org/1999/xlink"><style>:root>svg{display:none}:root>svg:target{display:block}</style><svg viewBox="0 0 13 13" id="array-down" xmlns="http://www.w3.org/2000/svg"><path d="M6.099 10.871l-.775.85.775.706.774-.706-.774-.85zM4.946.398v11h2.3v-11h-2.3zm1.927 9.623L1.57 5.19.02 6.891l5.303 4.83 1.549-1.7zm3.754-4.83l-5.303 4.83 1.549 1.7 5.303-4.83-1.549-1.7z"/></svg><svg viewBox="0 0 13 13" id="array-up" xmlns="http://www.w3.org/2000/svg"><path d="M1.343 12.975L0 11.632l9.212-9.213H.96V.5h11.515v11.515h-1.92V3.763l-9.212 9.212z"/></svg><svg viewBox="0 0 23 24" id="call" xmlns="http://www.w3.org/2000/svg"><path d="M3.953 4.445h4.24l1.368 3.417-2.196 1.463a.944.944 0 00-.42.786c.002.089 0 .001 0 .001v.02a1.92 1.92 0 00.005.127c.005.077.015.182.033.31.037.257.108.608.246 1.021.277.831.821 1.907 1.88 2.967 1.06 1.06 2.136 1.604 2.967 1.88.414.139.765.21 1.021.246a4.196 4.196 0 00.406.038l.032.001h.019s.106-.005.001 0a.944.944 0 00.845-.522l.633-1.265 4.189.698v4.08c-1.994.289-7.379.573-11.61-3.659-4.231-4.23-3.947-9.616-3.659-11.61zm4.95 6.125l1.705-1.137a1.889 1.889 0 00.706-2.273L9.948 3.743a1.889 1.889 0 00-1.754-1.187h-4.29c-.858 0-1.666.596-1.807 1.527-.32 2.118-.756 8.371 4.18 13.307 4.935 4.936 11.189 4.5 13.307 4.18.93-.142 1.527-.95 1.527-1.807v-4.13a1.89 1.89 0 00-1.578-1.863l-4.19-.698a1.889 1.889 0 00-2 1.019l-.327.654a4.363 4.363 0 01-.342-.1c-.586-.194-1.4-.595-2.229-1.424-.829-.829-1.229-1.642-1.424-2.228a4.094 4.094 0 01-.118-.423z"/></svg><svg viewBox="0 0 502.664 502.664" id="icon" xmlns="http://www.w3.org/2000/svg"><path d="M153.821 358.226L0 274.337v-46.463l153.821-83.414v54.574L46.636 250.523l107.185 53.431v54.272zm26.273 29.358L282.103 115.08h32.227L212.084 387.584h-31.99zm168.749-29.358v-54.272l107.164-52.999-107.164-52.59v-53.927l153.821 83.522v46.183l-153.821 84.083z"/></svg><svg viewBox="0 0 160 40" id="logo" xmlns="http://www.w3.org/2000/svg"><path d="M20.405 23.86c-1.287 3.846 3.53 8.65 12.572 8.218-5.826-1.888-8.987-4.197-8.987-6.759 0-4.961 8.114-10.796 5.547-15.84-.888 6.14-7.535 9.613-9.132 14.381z"/><path d="M12.311 23.196c-1.734 5.18 1.538 11.088 13.708 10.506-23.02-7.458 5.157-18.597-.084-28.895-1.895 7.777-11.475 11.971-13.624 18.39z"/><path d="M20.412.56C19.146 11.1 4.104 15.92 1.556 23.728c-5.153 15.794 27.002 23.08 34.681 8.043-7.45 7.865-32.856 5.417-29.37-7.643C8.877 16.585 23.927 9.597 20.54 0l-.129.56zM57.107 16.522v-5.247l.455.034.332.018.315-.018.47-.037V23.78l-.323-.028a.803.803 0 01-.209-.018l-.252-.009-.273.009-.224.018-.291.029v-6.29l-1.258-.035-1.46-.073h-2.088c-.173 0-.436.011-.785.036-.35.025-.578.037-.68.037l-1.26.035v6.29l-.32-.028a.837.837 0 01-.219-.019l-.25-.008-.358.018-.429.037V11.276l.455.035.331.018.314-.018.477-.038v5.253l3.775.087c.537-.022 1.165-.044 1.889-.063a81.842 81.842 0 011.866-.028zm9.48-5.521l5.362 12.78-.376-.029h-.105a.929.929 0 01-.148-.018l-.293-.009-.448.018-.507.038a68.571 68.571 0 00-.916-2.573 55.335 55.335 0 00-.962-2.364h-4.543l-.706 1.797-.574 1.573a25.998 25.998 0 00-.496 1.566l-.272-.028a.61.61 0 01-.181-.019l-.208-.008-.22.008-.171.02-.228.027L66.178 11h.408zm1.334 7.077l-1.986-4.689-1.95 4.69h3.936zm6.017 5.703V11.276l.456.035.33.018.306-.018.481-.038v12.508l-.325-.028a.847.847 0 01-.218-.019l-.243-.008-.271.008-.227.019-.289.028zm6.455-11.83v5.02l.38.009h.463c.586 0 1.078-.037 1.474-.106.689-.145 1.247-.446 1.667-.906.42-.458.632-1.027.632-1.704 0-1.303-.66-2.069-1.975-2.293-.192-.038-.563-.056-1.115-.056-.092 0-.224.006-.394.018-.17.014-.29.018-.37.018h-.761zm-1.575 11.83V11.276h3.79c1.362 0 2.365.232 3.008.692.644.459.966 1.157.966 2.093 0 .498-.098.947-.292 1.347-.199.398-.466.74-.817 1.026-.35.283-.74.517-1.17.69a7.67 7.67 0 01-1.39.408l3.69 4.75.863 1.044.333.455-.418-.028h-.113a.959.959 0 01-.17-.019l-.328-.008h-.295l-.29.018-.434.037a53.58 53.58 0 00-1.136-1.587l-2.102-2.803-1.445-1.732-.675-.003v6.126l-.324-.029a.844.844 0 01-.215-.018l-.253-.009-.355.018-.428.037zm19.993-7.478c.578-.417 1.025-.847 1.347-1.288a2.56 2.56 0 00.479-1.53 1.68 1.68 0 00-.175-.771 1.446 1.446 0 00-.505-.557 1.177 1.177 0 00-.338-.15 1.502 1.502 0 00-.413-.055c-.488 0-.864.162-1.126.484-.264.327-.396.738-.396 1.239 0 .685.377 1.564 1.127 2.628zm3.847 4.823l2.244 2.637a17.683 17.683 0 00-.621-.055 6.013 6.013 0 00-.472-.02l-.474.02-.55.034a48.23 48.23 0 00-.619-.88 9.676 9.676 0 00-.508-.655 6.25 6.25 0 01-1.102.936 4.941 4.941 0 01-2.757.837c-.989 0-1.806-.276-2.445-.832-.641-.56-.96-1.297-.96-2.221 0-.292.033-.563.097-.813.063-.25.167-.501.314-.75a4.74 4.74 0 011.103-1.264 8.975 8.975 0 011.618-1.03l.105-.064a31.4 31.4 0 01-.554-.9c-.148-.25-.277-.477-.381-.689-.177-.355-.264-.775-.264-1.257 0-.546.117-1.024.345-1.432.23-.407.559-.72.988-.943.427-.219.9-.33 1.417-.33.692 0 1.26.174 1.703.519.443.344.665.81.665 1.402 0 .48-.114.92-.341 1.316a3.777 3.777 0 01-.799.99c-.305.263-.736.597-1.294 1.003l.638.85.847 1.115c.147.192.289.365.415.522.122.157.223.279.299.359l.949 1.1c.335-.496.704-1.09 1.115-1.778a47.64 47.64 0 001.013-1.85c.155.271.381.521.685.754a35.856 35.856 0 01-2.419 3.369zm-4.717-3.67l-.082.045-.06.041c-.617.395-1.1.823-1.441 1.286-.342.469-.518 1.023-.518 1.68 0 .496.12.948.348 1.362.231.415.548.734.956.963.406.23.848.344 1.325.344.612 0 1.17-.154 1.669-.464.498-.315.887-.61 1.163-.888a136.164 136.164 0 01-3.36-4.37zm14.198 3.857l.187.003c.386.644.798 1.121 1.25 1.436.446.322.995.479 1.639.479.47 0 .897-.122 1.277-.363.375-.24.669-.568.889-.987.216-.416.322-.859.322-1.323 0-.745-.227-1.294-.675-1.644-.452-.354-1.142-.717-2.069-1.09-.931-.376-1.638-.79-2.122-1.24-.487-.45-.733-1.142-.733-2.07 0-1.128.375-1.993 1.128-2.602.75-.606 1.702-.912 2.847-.912.474 0 .94.07 1.397.214.464.145.848.357 1.154.643-.075.186-.235.686-.478 1.5h-.177a2.37 2.37 0 00-.847-1.166c-.39-.283-.849-.423-1.375-.423a2.41 2.41 0 00-1.126.268 2.06 2.06 0 00-.82.764c-.207.33-.306.699-.306 1.104 0 .747.221 1.29.674 1.636.447.348 1.143.71 2.089 1.098.948.383 1.662.793 2.144 1.228.484.436.727 1.087.727 1.96a4.38 4.38 0 01-.33 1.734 3.748 3.748 0 01-.954 1.322 4.32 4.32 0 01-1.417.84 5.538 5.538 0 01-.818.208c-.286.044-.583.07-.902.07-.261 0-.511-.023-.752-.065a5.824 5.824 0 01-.852-.222c-.582-.194-1.018-.454-1.311-.777.14-.398.255-.937.34-1.623zm18.216-10.034l-4.053 3.991-1.532 1.563 1.506 1.74 1.74 2.009 1.104 1.278 1.452 1.831v.09l-.41-.028h-.113a.948.948 0 01-.159-.019l-.305-.008-.463.018-.537.037a20.81 20.81 0 00-1.229-1.67l-3.913-4.652a.376.376 0 00-.251-.094c-.01 0-.019.001-.028.01-.009.01-.019.019-.024.026v6.38l-.324-.028a.843.843 0 01-.217-.019l-.247-.008-.359.018-.428.037V11.272l.454.038.333.018.31-.018.479-.035v5.65a.16.16 0 00.085.035c.095 0 .216-.048.362-.141.108-.084.231-.196.38-.335.15-.14.341-.327.567-.561l4.403-4.648.414.035.304.018.282-.018.417-.032zm2.212 12.502V11.276l.454.035.332.018.306-.018.481-.038v12.508l-.324-.028a.862.862 0 01-.219-.019l-.244-.008-.271.008-.224.019-.291.028zM148 11.276v12.505h-.542a14.63 14.63 0 00-.928-1.112l-7.731-8.74-.172-.006v9.858l-.27-.037-.231-.018-.174.008-.139.019-.188.028V11.276h.698l8.492 9.415h.186v-9.419l.278.038.22.018.206-.018.295-.034zM48 33.88v-6.731l.224.019.16.009.151-.01.236-.02v6.732l-.159-.015a.414.414 0 01-.107-.01l-.12-.006-.132.006-.11.01-.143.015zm7.83-6.731v6.73h-.265a7.79 7.79 0 00-.452-.6l-3.778-4.701-.084-.005v5.306l-.131-.02-.111-.011-.088.006-.069.01-.089.015v-6.73h.343l4.145 5.066h.09v-5.068l.136.02.107.01.103-.01.143-.018zm7.089 0v6.73h-.266a7.664 7.664 0 00-.453-.6l-3.777-4.701-.082-.005v5.306l-.133-.02-.112-.011-.085.006-.07.01-.09.015v-6.73h.34l4.148 5.066h.09v-5.068l.135.02.108.01.102-.01.145-.018zm7.202 3.295c0-.325-.015-.598-.045-.822a3.12 3.12 0 00-.167-.688 2.778 2.778 0 00-.34-.656 2.32 2.32 0 00-.499-.513 2.301 2.301 0 00-1.32-.438c-.378 0-.722.077-1.03.234-.306.155-.567.38-.782.67-.211.29-.374.638-.486 1.052-.11.414-.165.86-.165 1.348 0 .477.06.903.177 1.28.118.375.29.697.511.964.225.265.482.462.775.596.294.133.602.2.923.2.412 0 .774-.1 1.086-.301a2.42 2.42 0 00.765-.787 3.94 3.94 0 00.444-1.071c.103-.388.153-.746.153-1.068zm-2.473 3.553c-.474 0-.913-.082-1.311-.245-.4-.166-.741-.4-1.024-.71a3.192 3.192 0 01-.655-1.112 4.037 4.037 0 01-.226-1.417c0-.528.082-1.006.243-1.442a3.22 3.22 0 01.694-1.123 3.052 3.052 0 011.023-.701A3.243 3.243 0 0167.667 27c.42 0 .83.067 1.227.199a2.906 2.906 0 011.807 1.666c.184.427.273.926.273 1.496 0 .713-.14 1.343-.422 1.895a3.07 3.07 0 01-1.185 1.28 3.264 3.264 0 01-1.719.461zm7.597-2.38l.915-2.67.521-1.644.06-.156.186.02.14.01.126-.01.194-.019c-.075.161-.233.55-.474 1.166l-.832 2.177c-.018.048-.114.313-.296.79l-.262.709c-.065.17-.142.38-.232.636a27.62 27.62 0 00-.425 1.252l-.1-.03h-.162l-.097.027-.71-1.702-.822-2.134-.772-2.012a10.846 10.846 0 00-.36-.88l.24.021.18.01.183-.012.254-.02.33.95.577 1.724 1.064 2.99.078-.004.246-.57c.05-.112.096-.228.143-.342.035-.097.07-.19.107-.277zm4.927-4.615h-.2l-2.725 6.877.11-.014.086-.01.105-.006.103.006a.3.3 0 00.09.01l.13.014c.067-.258.147-.538.244-.844l.28-.845.344-.966h2.218a31.345 31.345 0 01.917 2.655l.247-.018.22-.012.144.006c.036.006.057.011.071.011h.052l.184.014-2.62-6.878zm.654 3.806h-1.923l.952-2.52.97 2.52zm4.609-3.188v6.268l-.158-.005a.348.348 0 01-.106-.01l-.119-.005-.177.01-.21.019V27.62c-.605 0-1.242.04-1.913.119l.017-.16.01-.135-.004-.094-.01-.079-.013-.123h4.507l-.014.177-.01.122.01.122.014.173-.842-.081a5.02 5.02 0 01-.359-.013c-.326-.016-.532-.028-.623-.028zm2.641 6.26v-6.731l.222.019.162.009.151-.01.233-.02v6.732l-.157-.015a.408.408 0 01-.107-.01l-.12-.006-.132.006-.111.01-.141.015zm7.943-3.436c0-.325-.013-.598-.042-.822a3.383 3.383 0 00-.168-.688 2.738 2.738 0 00-.338-.656 2.29 2.29 0 00-.499-.513 2.308 2.308 0 00-1.322-.438c-.378 0-.719.077-1.029.234-.304.155-.568.38-.782.67-.21.29-.373.638-.484 1.052-.112.414-.167.86-.167 1.348 0 .477.06.903.175 1.28.12.375.29.697.513.964.227.265.482.462.776.596.293.133.602.2.922.2.415 0 .777-.1 1.086-.301.312-.199.567-.461.764-.787.198-.324.347-.682.447-1.071.099-.388.148-.746.148-1.068zm-2.47 3.553c-.477 0-.914-.082-1.312-.245a2.837 2.837 0 01-1.024-.71 3.211 3.211 0 01-.655-1.112 3.727 3.727 0 01-.171-.671 4.839 4.839 0 01-.055-.746c0-.528.082-1.006.242-1.442a3.22 3.22 0 01.698-1.123c.29-.303.628-.538 1.02-.701A3.24 3.24 0 0193.566 27c.423 0 .83.067 1.229.199.399.133.751.337 1.064.612.31.276.56.626.741 1.054.184.427.275.926.275 1.496 0 .713-.139 1.343-.421 1.895a3.1 3.1 0 01-1.186 1.28 3.264 3.264 0 01-1.72.461zm9.927-6.848v6.73h-.266a7.682 7.682 0 00-.452-.6l-3.777-4.701-.082-.005v5.306l-.134-.02-.111-.011-.088.006-.066.01-.089.015v-6.73h.339l4.147 5.066h.092v-5.068l.134.02.108.01.103-.01.142-.018zm4.112 6.73v-6.73l.223.019.163.009.151-.01.231-.02v6.732l-.157-.015a.428.428 0 01-.107-.01l-.118-.006-.134.006-.111.01-.141.015zm7.832-6.73v6.73h-.267a7.248 7.248 0 00-.453-.6l-3.777-4.701-.081-.005v5.306l-.133-.02-.114-.011-.084.006-.069.01-.089.015v-6.73h.34l4.146 5.066h.091v-5.068l.138.02.108.01.1-.01.144-.018zm1.704 5.401l.091.003c.187.345.39.603.608.775.22.17.487.254.804.254.23 0 .438-.065.621-.194a1.35 1.35 0 00.436-.53 1.67 1.67 0 00.155-.713c0-.4-.109-.694-.329-.885-.222-.19-.557-.385-1.012-.586-.452-.203-.799-.424-1.036-.667-.238-.242-.357-.613-.357-1.114 0-.607.185-1.071.55-1.4.368-.326.831-.49 1.392-.49.23 0 .458.039.682.113.225.079.413.193.566.347-.039.1-.117.37-.238.806h-.086a1.254 1.254 0 00-.413-.625 1.039 1.039 0 00-.671-.23 1.08 1.08 0 00-.549.146 1.052 1.052 0 00-.401.412 1.18 1.18 0 00-.153.594c0 .4.113.695.33.882.22.186.559.382 1.023.588.462.208.814.428 1.047.661.238.236.355.587.355 1.056 0 .346-.052.657-.162.933a2.05 2.05 0 01-.463.71 2.1 2.1 0 01-.693.453 2.571 2.571 0 01-.4.111 2.53 2.53 0 01-.441.04 1.87 1.87 0 01-.369-.036 2.66 2.66 0 01-.417-.12c-.283-.104-.495-.243-.637-.42.07-.215.126-.506.167-.874zm6.957-4.93v6.268l-.156-.005a.329.329 0 01-.106-.01l-.118-.005-.179.01-.207.019V27.62c-.605 0-1.243.04-1.913.119l.017-.16.007-.135-.005-.094-.008-.079-.013-.123h4.507l-.016.177-.01.122.01.122.016.173-.843-.081c-.11 0-.232-.004-.361-.013-.321-.016-.53-.028-.622-.028zm2.644 6.26v-6.731l.223.019.16.009.151-.01.236-.02v6.732l-.16-.015a.426.426 0 01-.108-.01l-.118-.006-.133.006-.11.01-.141.015zm4.746-6.26v6.268l-.159-.005a.357.357 0 01-.107-.01l-.115-.005-.179.01-.209.019V27.62c-.605 0-1.243.04-1.912.119l.014-.16.009-.135-.003-.094-.008-.079-.012-.123h4.507l-.017.177-.01.122.01.122.017.173-.845-.081c-.11 0-.227-.004-.359-.013-.325-.016-.532-.028-.622-.028zm2.914-.471v3.767c0 .443.035.826.097 1.152.063.324.169.597.316.819.144.22.346.384.594.492.122.054.261.092.418.121.157.03.324.042.505.042.656 0 1.135-.238 1.438-.72.297-.48.45-1.148.45-2.007v-3.668l.138.02.107.01.095-.01.149-.019v3.915c0 .636-.105 1.174-.309 1.61a2.144 2.144 0 01-.892.988c-.387.223-.835.336-1.351.336-.295 0-.554-.027-.787-.078a2.147 2.147 0 01-.608-.226 2.245 2.245 0 01-.5-.389 1.9 1.9 0 01-.501-.936 7.305 7.305 0 01-.097-.61 6.915 6.915 0 01-.032-.673v-3.938l.223.02.163.01.147-.01.237-.018zm8.355.471v6.268l-.155-.005a.336.336 0 01-.107-.01l-.118-.005-.181.01-.209.019V27.62c-.602 0-1.24.04-1.912.119l.017-.16.011-.135-.006-.094-.01-.079-.012-.123h4.509l-.019.177-.006.122.006.122.019.173-.845-.081c-.112 0-.229-.004-.358-.013-.326-.016-.533-.028-.624-.028zm2.873-.008v2.468h1.591l.259-.026.281-.025-.016.15-.01.111.01.1.016.175-.281-.026-.259-.025h-1.591v2.872c.055 0 .29-.008.705-.018.414-.013.704-.02.876-.02.118 0 .237-.007.349-.02.114-.015.267-.038.457-.068l-.015.105-.012.102-.006.092c0 .06.003.108.011.142l.022.15h-3.157v-6.702h3.1l-.016.178-.008.117.008.12.016.172c-.155-.034-.272-.06-.351-.07a2.771 2.771 0 00-.434-.033l-.873-.02h-.672z"/><defs><linearGradient id="ea" x1="21.196" y1="20.792" x2="32.978" y2="20.792" gradientUnits="userSpaceOnUse"><stop stop-color="#98D0BF"/><stop offset=".09" stop-color="#4CBAAF"/><stop offset=".16" stop-color="#23A59B"/><stop offset=".24" stop-color="#0A8D83"/><stop offset=".44" stop-color="#004F48"/><stop offset=".93" stop-color="#000005"/><stop offset="1" stop-color="#010005"/></linearGradient><linearGradient id="eb" x1="16.519" y1="19.274" x2="24.21" y2="19.274" gradientUnits="userSpaceOnUse"><stop stop-color="#AFDBD9"/><stop offset=".11" stop-color="#70C5C6"/><stop offset=".21" stop-color="#46B0AA"/><stop offset=".35" stop-color="#1F8589"/><stop offset=".53" stop-color="#005355"/><stop offset=".85" stop-color="#000211"/><stop offset="1" stop-color="#000006"/></linearGradient><linearGradient id="ec" x1="5.066" y1="20" x2="36.237" y2="20" gradientUnits="userSpaceOnUse"><stop stop-color="#3CBAD9"/><stop offset=".07" stop-color="#2FB7D7"/><stop offset=".09" stop-color="#2BB1D1"/><stop offset=".18" stop-color="#008CAD"/><stop offset=".26" stop-color="#006D84"/><stop offset=".45" stop-color="#003546"/><stop offset=".68" stop-color="#000F27"/><stop offset=".8" stop-color="#010005"/><stop offset=".82" stop-color="#010005"/><stop offset=".84" stop-color="#010005"/><stop offset=".85" stop-color="#010005"/><stop offset=".98" stop-color="#010005"/><stop offset="1" stop-color="#010005"/></linearGradient></defs></svg></svg>