<?xml version="1.0" encoding="utf-8"?><svg viewBox="0 0 502.66 502.66" xmlns="http://www.w3.org/2000/svg" xmlns:xlink="http://www.w3.org/1999/xlink"><style>:root>svg{display:none}:root>svg:target{display:block}</style><svg viewBox="0 0 13 13" id="array-down" xmlns="http://www.w3.org/2000/svg"><path d="M6.099 10.871l-.775.85.775.706.774-.706-.774-.85zM4.946.398v11h2.3v-11h-2.3zm1.927 9.623L1.57 5.19.02 6.891l5.303 4.83 1.549-1.7zm3.754-4.83l-5.303 4.83 1.549 1.7 5.303-4.83-1.549-1.7z"/></svg><svg viewBox="0 0 13 13" id="array-up" xmlns="http://www.w3.org/2000/svg"><path d="M1.343 12.975L0 11.632l9.212-9.213H.96V.5h11.515v11.515h-1.92V3.763l-9.212 9.212z"/></svg><svg viewBox="0 0 23 24" id="call" xmlns="http://www.w3.org/2000/svg"><path d="M3.953 4.445h4.24l1.368 3.417-2.196 1.463a.944.944 0 00-.42.786c.002.089 0 .001 0 .001v.02a1.92 1.92 0 00.005.127c.005.077.015.182.033.31.037.257.108.608.246 1.021.277.831.821 1.907 1.88 2.967 1.06 1.06 2.136 1.604 2.967 1.88.414.139.765.21 1.021.246a4.196 4.196 0 00.406.038l.032.001h.019s.106-.005.001 0a.944.944 0 00.845-.522l.633-1.265 4.189.698v4.08c-1.994.289-7.379.573-11.61-3.659-4.231-4.23-3.947-9.616-3.659-11.61zm4.95 6.125l1.705-1.137a1.889 1.889 0 00.706-2.273L9.948 3.743a1.889 1.889 0 00-1.754-1.187h-4.29c-.858 0-1.666.596-1.807 1.527-.32 2.118-.756 8.371 4.18 13.307 4.935 4.936 11.189 4.5 13.307 4.18.93-.142 1.527-.95 1.527-1.807v-4.13a1.89 1.89 0 00-1.578-1.863l-4.19-.698a1.889 1.889 0 00-2 1.019l-.327.654a4.363 4.363 0 01-.342-.1c-.586-.194-1.4-.595-2.229-1.424-.829-.829-1.229-1.642-1.424-2.228a4.094 4.094 0 01-.118-.423z"/></svg><svg viewBox="0 0 502.664 502.664" id="icon" xmlns="http://www.w3.org/2000/svg"><path d="M153.821 358.226L0 274.337v-46.463l153.821-83.414v54.574L46.636 250.523l107.185 53.431v54.272zm26.273 29.358L282.103 115.08h32.227L212.084 387.584h-31.99zm168.749-29.358v-54.272l107.164-52.999-107.164-52.59v-53.927l153.821 83.522v46.183l-153.821 84.083z"/></svg><svg viewBox="0 0 20 19" id="instagram" xmlns="http://www.w3.org/2000/svg"><g clip-path="url(#ea)"><path d="M10.022 1.755c2.396 0 2.678.011 3.625.054.876.039 1.35.185 1.666.31.42.163.72.356 1.033.669.314.314.51.613.67 1.032.12.317.27.79.31 1.666.042.948.054 1.23.054 3.626s-.012 2.678-.054 3.624c-.04.877-.186 1.35-.31 1.667-.144.39-.373.743-.67 1.033-.314.314-.613.51-1.032.669-.317.121-.79.27-1.666.31-.948.042-1.23.053-3.625.053-2.397 0-2.679-.01-3.625-.054-.877-.038-1.35-.184-1.667-.31a2.784 2.784 0 01-1.033-.668 2.74 2.74 0 01-.669-1.033c-.121-.317-.27-.79-.31-1.666-.042-.947-.053-1.229-.053-3.625s.01-2.678.054-3.625c.038-.876.184-1.35.31-1.667.162-.42.355-.719.668-1.032.314-.314.613-.51 1.033-.67.317-.12.79-.27 1.667-.31.946-.046 1.232-.054 3.624-.054v.001zm0-1.616c-2.435 0-2.741.01-3.7.053C5.37.235 4.717.389 4.147.61a4.38 4.38 0 00-1.588 1.036 4.45 4.45 0 00-1.036 1.588c-.22.57-.374 1.22-.416 2.18-.044.954-.054 1.26-.054 3.695 0 2.436.01 2.742.054 3.7.042.954.195 1.606.416 2.179a4.38 4.38 0 001.036 1.588c.449.455.99.809 1.588 1.036.57.22 1.222.374 2.18.417.956.043 1.259.053 3.699.053s2.741-.01 3.7-.054c.954-.042 1.605-.195 2.179-.416a4.37 4.37 0 001.588-1.036 4.45 4.45 0 001.036-1.588c.22-.57.374-1.22.416-2.18.043-.957.054-1.26.054-3.699 0-2.44-.01-2.741-.054-3.7-.042-.954-.195-1.605-.416-2.179a4.372 4.372 0 00-1.036-1.588A4.45 4.45 0 0015.905.605c-.57-.22-1.221-.374-2.18-.416-.96-.04-1.267-.05-3.703-.05z"/><path d="M10.022 4.504a4.609 4.609 0 10.002 9.217 4.609 4.609 0 00-.002-9.217zm0 7.595a2.992 2.992 0 01-2.149-5.124 2.991 2.991 0 112.149 5.124zm4.79-6.705a1.076 1.076 0 10.062-2.15 1.076 1.076 0 00-.063 2.15z"/></g><defs><clipPath id="ea"><path transform="translate(.158 .139)" d="M0 0h19.737v17.943H0z"/></clipPath></defs></svg><svg viewBox="0 0 160 40" id="logo" xmlns="http://www.w3.org/2000/svg"><path d="M20.405 23.86c-1.287 3.846 3.53 8.65 12.572 8.218-5.826-1.888-8.987-4.197-8.987-6.759 0-4.961 8.114-10.796 5.547-15.84-.888 6.14-7.535 9.613-9.132 14.381z"/><path d="M12.311 23.196c-1.734 5.18 1.538 11.088 13.708 10.506-23.02-7.458 5.157-18.597-.084-28.895-1.895 7.777-11.475 11.971-13.624 18.39z"/><path d="M20.412.56C19.146 11.1 4.104 15.92 1.556 23.728c-5.153 15.794 27.002 23.08 34.681 8.043-7.45 7.865-32.856 5.417-29.37-7.643C8.877 16.585 23.927 9.597 20.54 0l-.129.56zM57.107 16.522v-5.247l.455.034.332.018.315-.018.47-.037V23.78l-.323-.028a.803.803 0 01-.209-.018l-.252-.009-.273.009-.224.018-.291.029v-6.29l-1.258-.035-1.46-.073h-2.088c-.173 0-.436.011-.785.036-.35.025-.578.037-.68.037l-1.26.035v6.29l-.32-.028a.837.837 0 01-.219-.019l-.25-.008-.358.018-.429.037V11.276l.455.035.331.018.314-.018.477-.038v5.253l3.775.087c.537-.022 1.165-.044 1.889-.063a81.842 81.842 0 011.866-.028zm9.48-5.521l5.362 12.78-.376-.029h-.105a.929.929 0 01-.148-.018l-.293-.009-.448.018-.507.038a68.571 68.571 0 00-.916-2.573 55.335 55.335 0 00-.962-2.364h-4.543l-.706 1.797-.574 1.573a25.998 25.998 0 00-.496 1.566l-.272-.028a.61.61 0 01-.181-.019l-.208-.008-.22.008-.171.02-.228.027L66.178 11h.408zm1.334 7.077l-1.986-4.689-1.95 4.69h3.936zm6.017 5.703V11.276l.456.035.33.018.306-.018.481-.038v12.508l-.325-.028a.847.847 0 01-.218-.019l-.243-.008-.271.008-.227.019-.289.028zm6.455-11.83v5.02l.38.009h.463c.586 0 1.078-.037 1.474-.106.689-.145 1.247-.446 1.667-.906.42-.458.632-1.027.632-1.704 0-1.303-.66-2.069-1.975-2.293-.192-.038-.563-.056-1.115-.056-.092 0-.224.006-.394.018-.17.014-.29.018-.37.018h-.761zm-1.575 11.83V11.276h3.79c1.362 0 2.365.232 3.008.692.644.459.966 1.157.966 2.093 0 .498-.098.947-.292 1.347-.199.398-.466.74-.817 1.026-.35.283-.74.517-1.17.69a7.67 7.67 0 01-1.39.408l3.69 4.75.863 1.044.333.455-.418-.028h-.113a.959.959 0 01-.17-.019l-.328-.008h-.295l-.29.018-.434.037a53.58 53.58 0 00-1.136-1.587l-2.102-2.803-1.445-1.732-.675-.003v6.126l-.324-.029a.844.844 0 01-.215-.018l-.253-.009-.355.018-.428.037zm19.993-7.478c.578-.417 1.025-.847 1.347-1.288a2.56 2.56 0 00.479-1.53 1.68 1.68 0 00-.175-.771 1.446 1.446 0 00-.505-.557 1.177 1.177 0 00-.338-.15 1.502 1.502 0 00-.413-.055c-.488 0-.864.162-1.126.484-.264.327-.396.738-.396 1.239 0 .685.377 1.564 1.127 2.628zm3.847 4.823l2.244 2.637a17.683 17.683 0 00-.621-.055 6.013 6.013 0 00-.472-.02l-.474.02-.55.034a48.23 48.23 0 00-.619-.88 9.676 9.676 0 00-.508-.655 6.25 6.25 0 01-1.102.936 4.941 4.941 0 01-2.757.837c-.989 0-1.806-.276-2.445-.832-.641-.56-.96-1.297-.96-2.221 0-.292.033-.563.097-.813.063-.25.167-.501.314-.75a4.74 4.74 0 011.103-1.264 8.975 8.975 0 011.618-1.03l.105-.064a31.4 31.4 0 01-.554-.9c-.148-.25-.277-.477-.381-.689-.177-.355-.264-.775-.264-1.257 0-.546.117-1.024.345-1.432.23-.407.559-.72.988-.943.427-.219.9-.33 1.417-.33.692 0 1.26.174 1.703.519.443.344.665.81.665 1.402 0 .48-.114.92-.341 1.316a3.777 3.777 0 01-.799.99c-.305.263-.736.597-1.294 1.003l.638.85.847 1.115c.147.192.289.365.415.522.122.157.223.279.299.359l.949 1.1c.335-.496.704-1.09 1.115-1.778a47.64 47.64 0 001.013-1.85c.155.271.381.521.685.754a35.856 35.856 0 01-2.419 3.369zm-4.717-3.67l-.082.045-.06.041c-.617.395-1.1.823-1.441 1.286-.342.469-.518 1.023-.518 1.68 0 .496.12.948.348 1.362.231.415.548.734.956.963.406.23.848.344 1.325.344.612 0 1.17-.154 1.669-.464.498-.315.887-.61 1.163-.888a136.164 136.164 0 01-3.36-4.37zm14.198 3.857l.187.003c.386.644.798 1.121 1.25 1.436.446.322.995.479 1.639.479.47 0 .897-.122 1.277-.363.375-.24.669-.568.889-.987.216-.416.322-.859.322-1.323 0-.745-.227-1.294-.675-1.644-.452-.354-1.142-.717-2.069-1.09-.931-.376-1.638-.79-2.122-1.24-.487-.45-.733-1.142-.733-2.07 0-1.128.375-1.993 1.128-2.602.75-.606 1.702-.912 2.847-.912.474 0 .94.07 1.397.214.464.145.848.357 1.154.643-.075.186-.235.686-.478 1.5h-.177a2.37 2.37 0 00-.847-1.166c-.39-.283-.849-.423-1.375-.423a2.41 2.41 0 00-1.126.268 2.06 2.06 0 00-.82.764c-.207.33-.306.699-.306 1.104 0 .747.221 1.29.674 1.636.447.348 1.143.71 2.089 1.098.948.383 1.662.793 2.144 1.228.484.436.727 1.087.727 1.96a4.38 4.38 0 01-.33 1.734 3.748 3.748 0 01-.954 1.322 4.32 4.32 0 01-1.417.84 5.538 5.538 0 01-.818.208c-.286.044-.583.07-.902.07-.261 0-.511-.023-.752-.065a5.824 5.824 0 01-.852-.222c-.582-.194-1.018-.454-1.311-.777.14-.398.255-.937.34-1.623zm18.216-10.034l-4.053 3.991-1.532 1.563 1.506 1.74 1.74 2.009 1.104 1.278 1.452 1.831v.09l-.41-.028h-.113a.948.948 0 01-.159-.019l-.305-.008-.463.018-.537.037a20.81 20.81 0 00-1.229-1.67l-3.913-4.652a.376.376 0 00-.251-.094c-.01 0-.019.001-.028.01-.009.01-.019.019-.024.026v6.38l-.324-.028a.843.843 0 01-.217-.019l-.247-.008-.359.018-.428.037V11.272l.454.038.333.018.31-.018.479-.035v5.65a.16.16 0 00.085.035c.095 0 .216-.048.362-.141.108-.084.231-.196.38-.335.15-.14.341-.327.567-.561l4.403-4.648.414.035.304.018.282-.018.417-.032zm2.212 12.502V11.276l.454.035.332.018.306-.018.481-.038v12.508l-.324-.028a.862.862 0 01-.219-.019l-.244-.008-.271.008-.224.019-.291.028zM148 11.276v12.505h-.542a14.63 14.63 0 00-.928-1.112l-7.731-8.74-.172-.006v9.858l-.27-.037-.231-.018-.174.008-.139.019-.188.028V11.276h.698l8.492 9.415h.186v-9.419l.278.038.22.018.206-.018.295-.034zM48 33.88v-6.731l.224.019.16.009.151-.01.236-.02v6.732l-.159-.015a.414.414 0 01-.107-.01l-.12-.006-.132.006-.11.01-.143.015zm7.83-6.731v6.73h-.265a7.79 7.79 0 00-.452-.6l-3.778-4.701-.084-.005v5.306l-.131-.02-.111-.011-.088.006-.069.01-.089.015v-6.73h.343l4.145 5.066h.09v-5.068l.136.02.107.01.103-.01.143-.018zm7.089 0v6.73h-.266a7.664 7.664 0 00-.453-.6l-3.777-4.701-.082-.005v5.306l-.133-.02-.112-.011-.085.006-.07.01-.09.015v-6.73h.34l4.148 5.066h.09v-5.068l.135.02.108.01.102-.01.145-.018zm7.202 3.295c0-.325-.015-.598-.045-.822a3.12 3.12 0 00-.167-.688 2.778 2.778 0 00-.34-.656 2.32 2.32 0 00-.499-.513 2.301 2.301 0 00-1.32-.438c-.378 0-.722.077-1.03.234-.306.155-.567.38-.782.67-.211.29-.374.638-.486 1.052-.11.414-.165.86-.165 1.348 0 .477.06.903.177 1.28.118.375.29.697.511.964.225.265.482.462.775.596.294.133.602.2.923.2.412 0 .774-.1 1.086-.301a2.42 2.42 0 00.765-.787 3.94 3.94 0 00.444-1.071c.103-.388.153-.746.153-1.068zm-2.473 3.553c-.474 0-.913-.082-1.311-.245-.4-.166-.741-.4-1.024-.71a3.192 3.192 0 01-.655-1.112 4.037 4.037 0 01-.226-1.417c0-.528.082-1.006.243-1.442a3.22 3.22 0 01.694-1.123 3.052 3.052 0 011.023-.701A3.243 3.243 0 0167.667 27c.42 0 .83.067 1.227.199a2.906 2.906 0 011.807 1.666c.184.427.273.926.273 1.496 0 .713-.14 1.343-.422 1.895a3.07 3.07 0 01-1.185 1.28 3.264 3.264 0 01-1.719.461zm7.597-2.38l.915-2.67.521-1.644.06-.156.186.02.14.01.126-.01.194-.019c-.075.161-.233.55-.474 1.166l-.832 2.177c-.018.048-.114.313-.296.79l-.262.709c-.065.17-.142.38-.232.636a27.62 27.62 0 00-.425 1.252l-.1-.03h-.162l-.097.027-.71-1.702-.822-2.134-.772-2.012a10.846 10.846 0 00-.36-.88l.24.021.18.01.183-.012.254-.02.33.95.577 1.724 1.064 2.99.078-.004.246-.57c.05-.112.096-.228.143-.342.035-.097.07-.19.107-.277zm4.927-4.615h-.2l-2.725 6.877.11-.014.086-.01.105-.006.103.006a.3.3 0 00.09.01l.13.014c.067-.258.147-.538.244-.844l.28-.845.344-.966h2.218a31.345 31.345 0 01.917 2.655l.247-.018.22-.012.144.006c.036.006.057.011.071.011h.052l.184.014-2.62-6.878zm.654 3.806h-1.923l.952-2.52.97 2.52zm4.609-3.188v6.268l-.158-.005a.348.348 0 01-.106-.01l-.119-.005-.177.01-.21.019V27.62c-.605 0-1.242.04-1.913.119l.017-.16.01-.135-.004-.094-.01-.079-.013-.123h4.507l-.014.177-.01.122.01.122.014.173-.842-.081a5.02 5.02 0 01-.359-.013c-.326-.016-.532-.028-.623-.028zm2.641 6.26v-6.731l.222.019.162.009.151-.01.233-.02v6.732l-.157-.015a.408.408 0 01-.107-.01l-.12-.006-.132.006-.111.01-.141.015zm7.943-3.436c0-.325-.013-.598-.042-.822a3.383 3.383 0 00-.168-.688 2.738 2.738 0 00-.338-.656 2.29 2.29 0 00-.499-.513 2.308 2.308 0 00-1.322-.438c-.378 0-.719.077-1.029.234-.304.155-.568.38-.782.67-.21.29-.373.638-.484 1.052-.112.414-.167.86-.167 1.348 0 .477.06.903.175 1.28.12.375.29.697.513.964.227.265.482.462.776.596.293.133.602.2.922.2.415 0 .777-.1 1.086-.301.312-.199.567-.461.764-.787.198-.324.347-.682.447-1.071.099-.388.148-.746.148-1.068zm-2.47 3.553c-.477 0-.914-.082-1.312-.245a2.837 2.837 0 01-1.024-.71 3.211 3.211 0 01-.655-1.112 3.727 3.727 0 01-.171-.671 4.839 4.839 0 01-.055-.746c0-.528.082-1.006.242-1.442a3.22 3.22 0 01.698-1.123c.29-.303.628-.538 1.02-.701A3.24 3.24 0 0193.566 27c.423 0 .83.067 1.229.199.399.133.751.337 1.064.612.31.276.56.626.741 1.054.184.427.275.926.275 1.496 0 .713-.139 1.343-.421 1.895a3.1 3.1 0 01-1.186 1.28 3.264 3.264 0 01-1.72.461zm9.927-6.848v6.73h-.266a7.682 7.682 0 00-.452-.6l-3.777-4.701-.082-.005v5.306l-.134-.02-.111-.011-.088.006-.066.01-.089.015v-6.73h.339l4.147 5.066h.092v-5.068l.134.02.108.01.103-.01.142-.018zm4.112 6.73v-6.73l.223.019.163.009.151-.01.231-.02v6.732l-.157-.015a.428.428 0 01-.107-.01l-.118-.006-.134.006-.111.01-.141.015zm7.832-6.73v6.73h-.267a7.248 7.248 0 00-.453-.6l-3.777-4.701-.081-.005v5.306l-.133-.02-.114-.011-.084.006-.069.01-.089.015v-6.73h.34l4.146 5.066h.091v-5.068l.138.02.108.01.1-.01.144-.018zm1.704 5.401l.091.003c.187.345.39.603.608.775.22.17.487.254.804.254.23 0 .438-.065.621-.194a1.35 1.35 0 00.436-.53 1.67 1.67 0 00.155-.713c0-.4-.109-.694-.329-.885-.222-.19-.557-.385-1.012-.586-.452-.203-.799-.424-1.036-.667-.238-.242-.357-.613-.357-1.114 0-.607.185-1.071.55-1.4.368-.326.831-.49 1.392-.49.23 0 .458.039.682.113.225.079.413.193.566.347-.039.1-.117.37-.238.806h-.086a1.254 1.254 0 00-.413-.625 1.039 1.039 0 00-.671-.23 1.08 1.08 0 00-.549.146 1.052 1.052 0 00-.401.412 1.18 1.18 0 00-.153.594c0 .4.113.695.33.882.22.186.559.382 1.023.588.462.208.814.428 1.047.661.238.236.355.587.355 1.056 0 .346-.052.657-.162.933a2.05 2.05 0 01-.463.71 2.1 2.1 0 01-.693.453 2.571 2.571 0 01-.4.111 2.53 2.53 0 01-.441.04 1.87 1.87 0 01-.369-.036 2.66 2.66 0 01-.417-.12c-.283-.104-.495-.243-.637-.42.07-.215.126-.506.167-.874zm6.957-4.93v6.268l-.156-.005a.329.329 0 01-.106-.01l-.118-.005-.179.01-.207.019V27.62c-.605 0-1.243.04-1.913.119l.017-.16.007-.135-.005-.094-.008-.079-.013-.123h4.507l-.016.177-.01.122.01.122.016.173-.843-.081c-.11 0-.232-.004-.361-.013-.321-.016-.53-.028-.622-.028zm2.644 6.26v-6.731l.223.019.16.009.151-.01.236-.02v6.732l-.16-.015a.426.426 0 01-.108-.01l-.118-.006-.133.006-.11.01-.141.015zm4.746-6.26v6.268l-.159-.005a.357.357 0 01-.107-.01l-.115-.005-.179.01-.209.019V27.62c-.605 0-1.243.04-1.912.119l.014-.16.009-.135-.003-.094-.008-.079-.012-.123h4.507l-.017.177-.01.122.01.122.017.173-.845-.081c-.11 0-.227-.004-.359-.013-.325-.016-.532-.028-.622-.028zm2.914-.471v3.767c0 .443.035.826.097 1.152.063.324.169.597.316.819.144.22.346.384.594.492.122.054.261.092.418.121.157.03.324.042.505.042.656 0 1.135-.238 1.438-.72.297-.48.45-1.148.45-2.007v-3.668l.138.02.107.01.095-.01.149-.019v3.915c0 .636-.105 1.174-.309 1.61a2.144 2.144 0 01-.892.988c-.387.223-.835.336-1.351.336-.295 0-.554-.027-.787-.078a2.147 2.147 0 01-.608-.226 2.245 2.245 0 01-.5-.389 1.9 1.9 0 01-.501-.936 7.305 7.305 0 01-.097-.61 6.915 6.915 0 01-.032-.673v-3.938l.223.02.163.01.147-.01.237-.018zm8.355.471v6.268l-.155-.005a.336.336 0 01-.107-.01l-.118-.005-.181.01-.209.019V27.62c-.602 0-1.24.04-1.912.119l.017-.16.011-.135-.006-.094-.01-.079-.012-.123h4.509l-.019.177-.006.122.006.122.019.173-.845-.081c-.112 0-.229-.004-.358-.013-.326-.016-.533-.028-.624-.028zm2.873-.008v2.468h1.591l.259-.026.281-.025-.016.15-.01.111.01.1.016.175-.281-.026-.259-.025h-1.591v2.872c.055 0 .29-.008.705-.018.414-.013.704-.02.876-.02.118 0 .237-.007.349-.02.114-.015.267-.038.457-.068l-.015.105-.012.102-.006.092c0 .06.003.108.011.142l.022.15h-3.157v-6.702h3.1l-.016.178-.008.117.008.12.016.172c-.155-.034-.272-.06-.351-.07a2.771 2.771 0 00-.434-.033l-.873-.02h-.672z"/><defs><linearGradient id="fa" x1="21.196" y1="20.792" x2="32.978" y2="20.792" gradientUnits="userSpaceOnUse"><stop stop-color="#98D0BF"/><stop offset=".09" stop-color="#4CBAAF"/><stop offset=".16" stop-color="#23A59B"/><stop offset=".24" stop-color="#0A8D83"/><stop offset=".44" stop-color="#004F48"/><stop offset=".93" stop-color="#000005"/><stop offset="1" stop-color="#010005"/></linearGradient><linearGradient id="fb" x1="16.519" y1="19.274" x2="24.21" y2="19.274" gradientUnits="userSpaceOnUse"><stop stop-color="#AFDBD9"/><stop offset=".11" stop-color="#70C5C6"/><stop offset=".21" stop-color="#46B0AA"/><stop offset=".35" stop-color="#1F8589"/><stop offset=".53" stop-color="#005355"/><stop offset=".85" stop-color="#000211"/><stop offset="1" stop-color="#000006"/></linearGradient><linearGradient id="fc" x1="5.066" y1="20" x2="36.237" y2="20" gradientUnits="userSpaceOnUse"><stop stop-color="#3CBAD9"/><stop offset=".07" stop-color="#2FB7D7"/><stop offset=".09" stop-color="#2BB1D1"/><stop offset=".18" stop-color="#008CAD"/><stop offset=".26" stop-color="#006D84"/><stop offset=".45" stop-color="#003546"/><stop offset=".68" stop-color="#000F27"/><stop offset=".8" stop-color="#010005"/><stop offset=".82" stop-color="#010005"/><stop offset=".84" stop-color="#010005"/><stop offset=".85" stop-color="#010005"/><stop offset=".98" stop-color="#010005"/><stop offset="1" stop-color="#010005"/></linearGradient></defs></svg><svg viewBox="0 0 236 59" id="logo-footer" xmlns="http://www.w3.org/2000/svg"><path d="M30.628 35.195c-1.899 5.673 5.208 12.76 18.543 12.121-8.593-2.785-13.256-6.19-13.256-9.97 0-7.317 11.968-15.924 8.182-23.364-1.31 9.057-11.114 14.18-13.47 21.213z"/><path d="M18.682 34.216c-2.557 7.638 2.268 16.354 20.22 15.495-33.956-11 7.605-27.43-.125-42.62-2.795 11.472-16.925 17.658-20.095 27.125z"/><path d="M30.633.827C28.766 16.372 6.578 23.48 2.82 34.997-4.78 58.295 42.648 69.04 53.975 46.86c-10.99 11.602-48.463 7.991-43.322-11.273C13.62 24.463 35.819 14.155 30.823 0l-.19.827zM83.569 24.071v-7.67l.679.051.494.026.469-.026.701-.055V34.68l-.482-.041c-.144 0-.247-.008-.31-.027l-.377-.013-.406.013-.335.027-.433.041v-9.192l-1.875-.051-2.173-.108h-3.112c-.259 0-.65.018-1.17.054-.522.036-.862.054-1.015.054l-1.875.05v9.194l-.478-.041c-.157 0-.266-.008-.326-.027l-.374-.013-.533.026-.638.055V16.404l.678.05.493.026.468-.026.71-.055v7.677l5.625.128c.8-.032 1.736-.065 2.814-.092a119.1 119.1 0 012.78-.04zm14.124-8.07l7.991 18.678-.561-.041h-.156c-.041 0-.116-.008-.22-.027l-.437-.013-.667.026-.756.055a98.127 98.127 0 00-1.364-3.76 79.153 79.153 0 00-1.433-3.455h-6.77l-1.051 2.627-.856 2.298c-.294.83-.541 1.59-.739 2.29l-.406-.041a.926.926 0 01-.27-.028l-.31-.012-.327.012-.255.028-.34.04L97.087 16h.607zm1.989 10.344l-2.959-6.853-2.906 6.853h5.865zm8.966 8.334V16.403l.68.05.492.027.454-.026.718-.055V34.68l-.486-.041a1.28 1.28 0 01-.324-.027l-.361-.013-.405.013-.338.027-.43.04zm9.618-17.288v7.335l.564.013h.692c.873 0 1.606-.053 2.196-.154 1.026-.211 1.858-.652 2.484-1.324.625-.669.942-1.501.942-2.491 0-1.904-.983-3.023-2.943-3.351-.287-.055-.839-.082-1.662-.082-.136 0-.333.009-.587.027-.254.02-.432.027-.551.027h-1.135zm-2.348 17.288V16.403h5.649c2.029 0 3.522.34 4.481 1.012.959.67 1.44 1.69 1.44 3.059 0 .728-.146 1.384-.436 1.969a4.492 4.492 0 01-1.217 1.498 6.826 6.826 0 01-1.743 1.01c-.643.255-1.332.452-2.07.596l5.497 6.943 1.285 1.525.496.665-.622-.041h-.169c-.065 0-.147-.008-.252-.027l-.49-.013h-.44l-.431.026-.647.055a77.417 77.417 0 00-1.693-2.319l-3.132-4.097-2.152-2.532-1.007-.004v8.953l-.482-.041c-.154 0-.26-.01-.321-.027l-.376-.013-.53.025-.638.054zm29.791-10.929c.861-.61 1.527-1.238 2.006-1.882.472-.648.714-1.39.714-2.237 0-.414-.088-.794-.261-1.126a2.123 2.123 0 00-.752-.814 1.769 1.769 0 00-.504-.22 2.286 2.286 0 00-.615-.08c-.728 0-1.287.237-1.678.708-.393.478-.589 1.079-.589 1.81 0 1.002.56 2.286 1.679 3.841zm5.732 7.05l3.343 3.854a26.906 26.906 0 00-.925-.08 9.127 9.127 0 00-.703-.03l-.707.03-.82.05a68.524 68.524 0 00-.922-1.287 14.4 14.4 0 00-.756-.957 9.313 9.313 0 01-1.643 1.368 7.495 7.495 0 01-4.108 1.223c-1.473 0-2.69-.403-3.642-1.217-.956-.817-1.431-1.895-1.431-3.246 0-.427.049-.822.144-1.188.094-.365.249-.732.468-1.095a6.984 6.984 0 011.644-1.848 13.382 13.382 0 012.411-1.506l.156-.094a44.4 44.4 0 01-.825-1.313 14.37 14.37 0 01-.568-1.008c-.263-.52-.393-1.134-.393-1.838 0-.798.174-1.496.514-2.092a3.472 3.472 0 011.472-1.378 4.638 4.638 0 012.112-.482c1.031 0 1.876.254 2.537.757.66.504.99 1.185.99 2.05 0 .702-.17 1.344-.507 1.923a5.54 5.54 0 01-1.192 1.446 30.22 30.22 0 01-1.927 1.467l.951 1.242 1.262 1.63c.219.28.431.533.617.763.182.229.333.407.446.524l1.414 1.609c.5-.725 1.05-1.594 1.661-2.6a65.89 65.89 0 001.51-2.704c.231.397.567.763 1.021 1.103-1.219 1.869-2.424 3.507-3.604 4.923zm-7.03-5.365l-.121.066-.091.06c-.918.577-1.637 1.203-2.146 1.88-.509.685-.771 1.496-.771 2.457 0 .723.177 1.384.518 1.99a3.598 3.598 0 001.425 1.406 3.998 3.998 0 001.974.504c.912 0 1.744-.226 2.487-.68.742-.46 1.321-.89 1.732-1.297-2.087-2.57-3.75-4.7-5.007-6.386zm21.156 5.637l.279.006c.574.94 1.189 1.638 1.863 2.098.664.471 1.482.7 2.442.7.7 0 1.335-.177 1.901-.53.56-.35.998-.83 1.326-1.443.321-.608.48-1.255.48-1.933 0-1.09-.338-1.892-1.006-2.403-.673-.517-1.702-1.048-3.083-1.595-1.387-.548-2.441-1.154-3.162-1.812-.725-.656-1.092-1.668-1.092-3.025 0-1.648.559-2.912 1.68-3.802 1.119-.885 2.537-1.333 4.243-1.333.706 0 1.401.104 2.082.313.691.211 1.262.522 1.718.94-.112.271-.349 1.002-.711 2.191h-.265c-.257-.722-.68-1.287-1.261-1.703-.582-.414-1.266-.618-2.049-.618-.604 0-1.164.129-1.677.391a3.059 3.059 0 00-1.223 1.117 2.934 2.934 0 00-.456 1.613c0 1.093.33 1.887 1.005 2.391.666.51 1.702 1.039 3.112 1.604 1.412.56 2.477 1.16 3.196 1.796.719.637 1.082 1.588 1.082 2.865 0 .938-.165 1.785-.491 2.533a5.487 5.487 0 01-1.422 1.933 6.465 6.465 0 01-2.111 1.227c-.39.129-.794.231-1.22.304a8.822 8.822 0 01-1.343.103 6.58 6.58 0 01-1.121-.095 8.853 8.853 0 01-1.269-.325c-.867-.282-1.518-.663-1.953-1.135.209-.581.379-1.37.506-2.373zm27.141-14.665l-6.037 5.834-2.284 2.284 2.244 2.544 2.592 2.935 1.646 1.869 2.163 2.676v.131l-.611-.041h-.168a1.4 1.4 0 01-.236-.027l-.455-.013-.69.026-.801.055c-.687-1-1.294-1.811-1.83-2.441l-5.831-6.799a.566.566 0 00-.375-.138.05.05 0 00-.041.017c-.014.014-.027.026-.035.036v9.325l-.483-.041a1.28 1.28 0 01-.324-.027l-.368-.013-.535.026-.637.055V16.398l.676.055.496.026.462-.026.714-.05v8.257a.245.245 0 00.127.051c.142 0 .321-.07.539-.207.161-.121.345-.285.566-.49.224-.203.509-.477.844-.82l6.562-6.791.617.05.452.026.42-.026.621-.046zm3.296 18.272V16.403l.678.05.494.027.456-.026.717-.055V34.68l-.484-.041c-.156 0-.26-.008-.326-.027l-.363-.013-.404.013-.333.027-.435.04zM219 16.403V34.68h-.807c-.337-.45-.8-.994-1.383-1.626l-11.52-12.772-.256-.01V34.68l-.402-.055-.344-.026-.26.013-.207.027-.279.041V16.404h1.039l12.654 13.76h.276V16.397l.414.055.329.026.307-.026.439-.05zM70 51.828v-9.616l.333.027.24.014.224-.014.352-.03v9.618l-.237-.02a.644.644 0 01-.159-.016l-.18-.008-.196.008-.164.015-.213.022zm11.667-9.616v9.615h-.395c-.164-.237-.39-.524-.674-.856l-5.629-6.717-.125-.007v7.58l-.195-.027-.166-.017-.13.008-.103.015-.133.02v-9.614h.51l6.177 7.238h.135v-7.24l.202.03.159.013.154-.014.213-.027zm10.562 0v9.615h-.396a10.96 10.96 0 00-.675-.856l-5.628-6.717-.122-.007v7.58l-.198-.027-.167-.017-.127.008-.103.015-.136.02v-9.614h.508l6.18 7.238h.135v-7.24l.2.03.162.013.151-.014.216-.027zm10.732 4.707a8.59 8.59 0 00-.068-1.173 4.344 4.344 0 00-.249-.983 3.916 3.916 0 00-.505-.938 3.383 3.383 0 00-.744-.732 3.483 3.483 0 00-1.969-.626c-.561 0-1.074.11-1.532.334a3.271 3.271 0 00-1.166.957 4.462 4.462 0 00-.725 1.504 7.213 7.213 0 00-.245 1.925c0 .682.09 1.29.263 1.829.177.535.432.996.762 1.377.334.379.718.66 1.154.851.438.19.897.286 1.376.286.614 0 1.154-.143 1.618-.43a3.509 3.509 0 001.139-1.125 5.46 5.46 0 00.662-1.53 5.74 5.74 0 00.229-1.526zm-3.686 5.077a5.32 5.32 0 01-1.954-.351 4.215 4.215 0 01-1.524-1.015 4.525 4.525 0 01-.976-1.587 5.603 5.603 0 01-.257-.959 6.52 6.52 0 01-.08-1.066c0-.754.122-1.437.362-2.059a4.573 4.573 0 011.034-1.605 4.56 4.56 0 011.524-1.002 5.013 5.013 0 011.9-.352 5.95 5.95 0 011.827.284 4.57 4.57 0 011.587.874c.464.394.832.895 1.105 1.507.276.609.408 1.323.408 2.137 0 1.017-.209 1.917-.628 2.707a4.485 4.485 0 01-1.766 1.83c-.756.437-1.611.657-2.562.657zm11.32-3.4l1.363-3.815.777-2.349.088-.222.278.029.21.013.186-.014.289-.026c-.111.23-.346.785-.705 1.665l-1.241 3.11c-.026.068-.169.447-.44 1.129-.221.57-.349.908-.391 1.013a38.14 38.14 0 00-.345.908c-.296.793-.509 1.39-.633 1.789l-.15-.042h-.241l-.145.038-1.057-2.432-1.225-3.048-1.151-2.875c-.243-.616-.418-1.035-.535-1.256l.358.03.268.012.272-.015.377-.03.493 1.358.859 2.463 1.585 4.27.117-.005.367-.813c.073-.162.142-.326.213-.49.053-.138.104-.27.159-.395zm7.342-6.593h-.297l-4.061 9.825.163-.02.127-.016.157-.008.154.008a.462.462 0 00.133.015l.196.02c.099-.368.217-.769.362-1.205l.419-1.208.511-1.38h3.304c.249.599.482 1.204.704 1.817.218.613.44 1.271.663 1.977l.368-.027.328-.016.215.008c.053.008.085.016.105.016h.078l.274.02-3.903-9.826zm.973 5.436h-2.864l1.418-3.6 1.446 3.6zm6.868-4.553v8.954l-.235-.008a.538.538 0 01-.159-.015l-.176-.005-.265.015-.312.026v-8.968c-.901 0-1.85.058-2.85.17l.024-.227.015-.194-.006-.134-.014-.112-.019-.176h6.715l-.021.253-.014.173.014.174.021.248-1.254-.116c-.167 0-.343-.006-.535-.019-.486-.022-.793-.039-.929-.039zm3.935 8.942v-9.616l.332.027.24.014.226-.014.347-.03v9.618l-.234-.02a.626.626 0 01-.159-.016l-.178-.008-.198.008-.166.015-.21.022zm11.835-4.909a9.04 9.04 0 00-.062-1.173 4.63 4.63 0 00-.25-.983 3.847 3.847 0 00-.505-.938 3.331 3.331 0 00-.742-.732 3.495 3.495 0 00-1.971-.626c-.562 0-1.071.11-1.532.334a3.293 3.293 0 00-1.166.957 4.476 4.476 0 00-.721 1.504 7.07 7.07 0 00-.249 1.925c0 .682.091 1.29.261 1.829.18.535.433.996.764 1.377.339.379.718.66 1.157.851.435.19.896.286 1.374.286.617 0 1.156-.143 1.617-.43a3.473 3.473 0 001.14-1.125c.294-.463.516-.974.664-1.53a5.96 5.96 0 00.221-1.526zm-3.681 5.077c-.709 0-1.36-.118-1.954-.351a4.234 4.234 0 01-1.526-1.015 4.553 4.553 0 01-.975-1.587 5.159 5.159 0 01-.255-.959 6.539 6.539 0 01-.082-1.066c0-.754.122-1.437.36-2.059a4.557 4.557 0 012.561-2.607 5.006 5.006 0 011.898-.352 5.98 5.98 0 011.83.284 4.62 4.62 0 011.586.874 4.15 4.15 0 011.104 1.507c.274.609.41 1.323.41 2.137 0 1.017-.207 1.917-.628 2.707a4.513 4.513 0 01-1.767 1.83c-.756.437-1.613.657-2.562.657zm14.792-9.784v9.615h-.396a10.72 10.72 0 00-.674-.856l-5.627-6.717-.122-.007v7.58l-.2-.027-.166-.017-.131.008-.098.015-.132.02v-9.614h.505l6.178 7.238h.137v-7.24l.2.03.161.013.153-.014.212-.027zm6.127 9.616v-9.616l.332.027.244.014.224-.014.344-.03v9.618l-.233-.02a.65.65 0 01-.159-.016l-.176-.008-.2.008-.166.015-.21.022zm11.67-9.616v9.615h-.399a10.03 10.03 0 00-.673-.856l-5.628-6.717-.122-.007v7.58l-.198-.027-.17-.017-.125.008-.102.015-.134.02v-9.614h.507l6.178 7.238h.136v-7.24l.205.03.161.013.149-.014.215-.027zm2.539 7.717l.135.003c.279.493.581.862.907 1.107.328.244.725.364 1.197.364.343 0 .653-.093.926-.277.274-.185.489-.439.649-.758.156-.32.231-.66.231-1.018 0-.573-.162-.992-.49-1.264-.331-.272-.831-.55-1.508-.838-.674-.29-1.19-.604-1.543-.953-.355-.345-.533-.875-.533-1.591 0-.867.275-1.53.82-2 .548-.465 1.238-.7 2.074-.7.342 0 .683.056 1.016.162.335.113.616.276.844.495-.058.142-.175.529-.355 1.152h-.128a1.79 1.79 0 00-.616-.893 1.59 1.59 0 00-.999-.327c-.296 0-.568.068-.818.206a1.541 1.541 0 00-.598.59c-.15.253-.228.535-.228.848 0 .572.168.992.492 1.26.328.265.833.546 1.525.84.688.297 1.212.611 1.559.945.355.336.529.837.529 1.508 0 .495-.077.938-.242 1.333a2.91 2.91 0 01-.689 1.015 3.143 3.143 0 01-1.033.647c-.192.068-.392.12-.596.158a3.912 3.912 0 01-.656.057c-.191 0-.372-.018-.55-.051a4.016 4.016 0 01-.621-.172c-.422-.148-.739-.347-.949-.6.103-.307.186-.723.248-1.248zm10.366-7.043v8.954l-.233-.008a.498.498 0 01-.157-.015l-.176-.005-.267.015-.309.026v-8.968c-.901 0-1.852.058-2.85.17l.025-.227.011-.194-.008-.134-.012-.112-.018-.176h6.715l-.025.253-.014.173.014.174.025.248-1.256-.116c-.165 0-.346-.006-.539-.019-.478-.022-.789-.039-.926-.039zm3.94 8.942v-9.616l.331.027.239.014.225-.014.352-.03v9.618l-.239-.02a.67.67 0 01-.161-.016l-.176-.008-.197.008-.165.015-.209.022zm7.071-8.942v8.954l-.237-.008a.546.546 0 01-.159-.015l-.173-.005-.266.015-.311.026v-8.968c-.901 0-1.852.058-2.85.17l.021-.227.015-.194-.006-.134-.011-.112-.019-.176h6.717l-.026.253-.014.173.014.174.026.248-1.259-.116a8.02 8.02 0 01-.535-.019c-.484-.022-.793-.039-.927-.039zm4.342-.674v5.383c0 .632.052 1.18.145 1.644.094.464.252.854.47 1.17.215.315.515.55.885.703.182.077.388.132.622.174.235.043.483.06.753.06.978 0 1.692-.34 2.143-1.028.443-.686.67-1.64.67-2.868v-5.24l.205.029.161.013.141-.014.222-.026v5.592c0 .909-.157 1.678-.46 2.299a3.119 3.119 0 01-1.329 1.413c-.577.318-1.245.48-2.014.48a5.73 5.73 0 01-1.173-.111 3.269 3.269 0 01-.904-.324 3.314 3.314 0 01-.746-.555c-.371-.356-.616-.803-.746-1.338a9.73 9.73 0 01-.145-.871 9.704 9.704 0 01-.048-.962V42.21l.332.029.244.013.218-.014.354-.026zm12.449.674v8.954l-.232-.008a.517.517 0 01-.159-.015l-.176-.005-.27.015-.31.026v-8.968c-.898 0-1.849.058-2.85.17l.026-.227.016-.194-.009-.134-.014-.112-.019-.176h6.719l-.028.253-.009.173.009.174.028.248-1.26-.116c-.166 0-.34-.006-.532-.019-.486-.022-.795-.039-.93-.039zm4.28-.011V46.4h2.37l.387-.038.418-.035-.023.214-.016.16.016.143.023.249-.418-.038-.387-.035h-2.37v4.103c.083 0 .433-.012 1.051-.026a49.54 49.54 0 011.305-.028c.176 0 .353-.011.52-.029.17-.021.398-.054.681-.097l-.023.15-.018.146-.009.13a.95.95 0 00.017.203l.033.215h-4.704v-9.575h4.619l-.024.255-.011.168.011.17.024.246c-.231-.048-.405-.085-.524-.1a4.267 4.267 0 00-.645-.047l-1.302-.028h-1.001v-.001z"/><defs><linearGradient id="ga" x1="31.794" y1="30.669" x2="49.172" y2="30.669" gradientUnits="userSpaceOnUse"><stop stop-color="#98D0BF"/><stop offset=".09" stop-color="#4CBAAF"/><stop offset=".16" stop-color="#23A59B"/><stop offset=".24" stop-color="#0A8D83"/><stop offset=".44" stop-color="#004F48"/><stop offset=".93" stop-color="#000005"/><stop offset="1" stop-color="#010005"/></linearGradient><linearGradient id="gb" x1="24.889" y1="28.431" x2="36.234" y2="28.431" gradientUnits="userSpaceOnUse"><stop stop-color="#AFDBD9"/><stop offset=".11" stop-color="#70C5C6"/><stop offset=".21" stop-color="#46B0AA"/><stop offset=".35" stop-color="#1F8589"/><stop offset=".53" stop-color="#005355"/><stop offset=".85" stop-color="#000211"/><stop offset="1" stop-color="#000006"/></linearGradient><linearGradient id="gc" x1="7.998" y1="29.5" x2="53.975" y2="29.5" gradientUnits="userSpaceOnUse"><stop stop-color="#3CBAD9"/><stop offset=".07" stop-color="#2FB7D7"/><stop offset=".09" stop-color="#2BB1D1"/><stop offset=".18" stop-color="#008CAD"/><stop offset=".26" stop-color="#006D84"/><stop offset=".45" stop-color="#003546"/><stop offset=".68" stop-color="#000F27"/><stop offset=".8" stop-color="#010005"/><stop offset=".82" stop-color="#010005"/><stop offset=".84" stop-color="#010005"/><stop offset=".85" stop-color="#010005"/><stop offset=".98" stop-color="#010005"/><stop offset="1" stop-color="#010005"/></linearGradient></defs></svg><svg viewBox="0 0 16 13" id="telegram" xmlns="http://www.w3.org/2000/svg"><path d="M15.263 1.043l-2.264 10.735s-.317.745-1.188.387L6.563 8.388c.705-.597 6.178-5.224 6.417-5.433.37-.325.14-.518-.29-.273L4.608 7.51l-3.119-.988s-.49-.163-.538-.52c-.048-.358.554-.552.554-.552L14.218.76s1.045-.432 1.045.283z"/></svg><svg viewBox="0 0 18 18" id="whatsapps" xmlns="http://www.w3.org/2000/svg"><path fill-rule="evenodd" clip-rule="evenodd" d="M14.706 3.289A7.987 7.987 0 009.034.949c-4.42 0-8.018 3.58-8.02 7.98 0 1.406.37 2.779 1.07 3.99L.948 17.052l4.251-1.11a8.041 8.041 0 003.832.972h.004c4.42 0 8.017-3.58 8.018-7.98a7.912 7.912 0 00-2.346-5.646zM9.034 15.567H9.03a6.681 6.681 0 01-3.392-.924l-.244-.144-2.522.659.673-2.448-.159-.251a6.594 6.594 0 01-1.019-3.53C2.37 5.272 5.36 2.296 9.036 2.296c1.78 0 3.454.692 4.712 1.945a6.579 6.579 0 011.95 4.693c0 3.658-2.99 6.633-6.664 6.633zm3.655-4.968c-.2-.1-1.185-.582-1.369-.648-.183-.067-.317-.1-.45.1-.134.199-.518.648-.635.781-.117.133-.233.15-.434.05-.2-.1-.846-.31-1.611-.99-.596-.528-.998-1.181-1.115-1.38-.117-.2 0-.298.088-.408.217-.268.434-.549.5-.682.068-.133.034-.25-.016-.35-.05-.1-.45-1.08-.618-1.48-.162-.389-.327-.336-.45-.342a8.023 8.023 0 00-.385-.007c-.133 0-.35.05-.534.25-.183.199-.701.681-.701 1.663 0 .981.718 1.93.818 2.063.1.133 1.413 2.147 3.423 3.01.478.206.851.329 1.142.42.48.153.917.131 1.262.08.385-.058 1.186-.483 1.353-.948.167-.466.167-.866.116-.949-.05-.083-.183-.133-.383-.233z"/></svg></svg>