<svg width="23" height="24" viewBox="0 0 23 24" fill="none" xmlns="http://www.w3.org/2000/svg">
<path d="M3.95323 4.44455H8.19373L9.56054 7.86158L7.36482 9.32539C7.10208 9.50056 6.94426 9.79544 6.94426 10.1112C6.94666 10.1996 6.94426 10.1122 6.94426 10.1122L6.94426 10.1132L6.94427 10.1153L6.9443 10.12L6.94444 10.1317C6.94458 10.1404 6.94481 10.151 6.94521 10.1633C6.94601 10.1881 6.94746 10.2201 6.95004 10.2589C6.95521 10.3364 6.96495 10.4412 6.98327 10.5694C7.01987 10.8257 7.09091 11.1767 7.22884 11.5904C7.50578 12.4213 8.04995 13.497 9.10977 14.5568C10.1696 15.6166 11.2453 16.1608 12.0762 16.4378C12.4899 16.5757 12.8409 16.6467 13.0972 16.6833C13.2253 16.7016 13.3302 16.7114 13.4077 16.7166C13.4465 16.7191 13.4785 16.7206 13.5032 16.7214C13.5156 16.7218 13.5262 16.722 13.5349 16.7222L13.5466 16.7223L13.5513 16.7223L13.5534 16.7223L13.5544 16.7223C13.5544 16.7223 13.6599 16.7166 13.5554 16.7223C13.9131 16.7223 14.2401 16.5202 14.4001 16.2003L15.0326 14.9353L19.222 15.6335V19.7134C17.2282 20.0017 11.8435 20.2859 7.61208 16.0545C3.38069 11.8231 3.66489 6.43837 3.95323 4.44455ZM8.90271 10.5703L10.6083 9.43323C11.3515 8.93776 11.6461 7.98941 11.3143 7.16007L9.94752 3.74304C9.66067 3.0259 8.96611 2.55566 8.19373 2.55566H3.90388C3.04585 2.55566 2.23818 3.15176 2.09732 4.08274C1.77686 6.20075 1.34067 12.4544 6.27644 17.3902C11.2122 22.3259 17.4658 21.8897 19.5839 21.5693C20.5148 21.4284 21.1109 20.6207 21.1109 19.7627V15.6335C21.1109 14.7101 20.4434 13.9221 19.5326 13.7703L15.3431 13.0721C14.5252 12.9358 13.714 13.3488 13.3431 14.0905L13.0159 14.745C12.913 14.7198 12.7982 14.6874 12.6735 14.6458C12.0876 14.4505 11.2745 14.0502 10.4454 13.2212C9.61635 12.3921 9.21607 11.5789 9.0208 10.9931C8.96803 10.8348 8.93004 10.6925 8.90271 10.5703Z" fill="#1F93AE"/>
</svg>
