
<svg width="812" height="468" viewBox="0 0 812 468" fill="none" xmlns="http://www.w3.org/2000/svg">
<path opacity="0.21" d="M127.584 77.3675V3.85067L133.97 4.33416L138.614 4.58455L143.021 4.33416L149.618 3.80751V179.048L145.084 178.659C143.726 178.659 142.766 178.581 142.163 178.4L138.623 178.279L134.81 178.4L131.66 178.659L127.584 179.056V90.9398L109.957 90.4477L89.5196 89.4203H74.9577H60.26C57.8316 89.4203 54.155 89.5843 49.2557 89.9297C44.3565 90.275 41.1554 90.4477 39.7205 90.4477L22.0848 90.9398V179.065L17.5932 178.668C16.1157 178.668 15.0883 178.59 14.5279 178.409L11.0127 178.288L6.00308 178.538L0 179.065V3.86794L6.37667 4.35143L11.0127 4.60181L15.411 4.35143L22.0933 3.82478V77.4193L74.9747 78.6453C82.4977 78.3345 91.3027 78.015 101.441 77.756C111.638 77.5143 120.325 77.3675 127.584 77.3675ZM260.391 0.00862906L335.527 179.056L330.254 178.659H328.785C328.394 178.659 327.69 178.581 326.713 178.4L322.604 178.279L316.337 178.53L309.222 179.056C304.926 166.192 300.638 154.2 296.401 143.019C292.138 131.838 287.68 120.821 282.926 109.891H219.269L209.386 135.076L201.336 157.101C198.577 165.052 196.25 172.339 194.391 179.048L190.578 178.659C189.381 178.659 188.532 178.564 188.04 178.392L185.127 178.279L182.045 178.392L179.651 178.659L176.458 179.048L254.676 0L260.391 0.00862906ZM279.088 99.1678L251.271 33.4732L223.939 99.1678H279.088ZM363.394 179.056V3.86794L369.788 4.35143L374.415 4.60181L378.686 4.35143L385.436 3.82478V179.065L380.868 178.668C379.425 178.668 378.406 178.59 377.82 178.409L374.424 178.288L370.62 178.409L367.436 178.668L363.394 179.056ZM453.831 13.3306V83.6442L459.137 83.7738H465.641C473.844 83.7738 480.738 83.2644 486.291 82.2974C495.937 80.2684 503.757 76.0465 509.641 69.6057C515.517 63.1908 518.497 55.2131 518.497 45.7246C518.497 27.4727 509.259 16.7496 490.834 13.5982C488.134 13.0716 482.937 12.8212 475.202 12.8212C473.92 12.8212 472.069 12.8989 469.683 13.0716C467.297 13.2615 465.624 13.3306 464.504 13.3306H459.443H453.831ZM431.754 179.056V3.86794H484.865C503.944 3.86794 517.988 7.12288 527.005 13.5637C536.023 19.9872 540.54 29.7693 540.54 42.8841C540.54 49.8688 539.164 56.1542 536.439 61.7576C533.662 67.335 529.909 72.1354 525.001 76.1242C520.094 80.0958 514.634 83.368 508.605 85.7941C502.56 88.2461 496.081 90.1369 489.144 91.5183L540.837 158.068L552.911 172.685L557.581 179.065L551.731 178.668H550.143C549.532 178.668 548.759 178.59 547.774 178.409L543.163 178.288H539.028L534.978 178.538L528.89 179.065C521.562 168.549 516.273 161.176 512.97 156.833L483.523 117.558L463.289 93.2882L453.822 93.2537V179.074L449.288 178.676C447.836 178.676 446.843 178.59 446.274 178.417L442.733 178.297L437.749 178.538L431.754 179.056ZM711.869 74.2938C719.961 68.4488 726.227 62.4224 730.728 56.2492C735.168 50.0415 737.444 42.9273 737.444 34.8028C737.444 30.8399 736.62 27.1965 734.99 24.0106C733.351 20.8334 730.999 18.2087 727.917 16.2056C726.516 15.2991 724.954 14.5825 723.179 14.1076C721.447 13.6069 719.46 13.3392 717.397 13.3392C710.553 13.3392 705.297 15.6099 701.621 20.1168C697.927 24.7013 696.076 30.46 696.076 37.4707C696.085 47.0801 701.349 59.3833 711.869 74.2938ZM765.761 141.862L797.194 178.815C793.645 178.443 790.775 178.193 788.5 178.038C786.182 177.856 784.034 177.753 781.885 177.753L775.245 178.038L767.536 178.521C764.267 173.79 761.371 169.654 758.866 166.192C756.396 162.738 754.001 159.656 751.751 157.014C747.276 161.841 742.148 166.192 736.306 170.129C730.422 174.04 724.232 176.958 717.652 178.918C711.071 180.887 704.431 181.854 697.681 181.854C683.832 181.854 672.387 177.986 663.437 170.189C654.445 162.359 649.979 152.024 649.979 139.073C649.979 134.981 650.438 131.191 651.338 127.685C652.221 124.18 653.673 120.666 655.736 117.187C659.65 110.59 664.787 104.668 671.189 99.47C677.574 94.2725 685.14 89.4462 693.86 85.0343L695.329 84.1364C692.247 79.2669 689.623 75.0623 687.568 71.5483C685.488 68.043 683.688 64.8571 682.228 61.8871C679.757 56.9054 678.534 51.0171 678.534 44.2655C678.534 36.6159 680.173 29.9247 683.365 24.2092C686.6 18.5109 691.194 14.1163 697.205 10.9995C703.183 7.93446 709.823 6.38038 717.066 6.38038C726.762 6.38038 734.71 8.81511 740.925 13.6414C747.123 18.4677 750.231 24.9948 750.231 33.2833C750.231 40.0177 748.635 46.1736 745.459 51.7251C742.284 57.2335 738.573 61.8698 734.26 65.5823C729.989 69.2776 723.952 73.9658 716.14 79.6468L725.081 91.5528L736.943 107.171C739.006 109.865 740.993 112.291 742.751 114.493C744.457 116.686 745.875 118.395 746.937 119.518L760.233 134.938C764.937 127.987 770.108 119.656 775.857 110.021C780.739 101.559 785.477 92.9256 790.054 84.0932C792.227 87.9007 795.386 91.406 799.648 94.6696C788.186 112.585 776.859 128.29 765.761 141.862ZM699.668 90.4391L698.521 91.0779L697.672 91.6564C689.037 97.182 682.279 103.183 677.49 109.667C672.709 116.237 670.238 124.007 670.238 133.22C670.238 140.152 671.911 146.49 675.112 152.292C678.356 158.102 682.788 162.574 688.511 165.778C694.2 168.998 700.39 170.604 707.072 170.604C715.648 170.604 723.468 168.445 730.456 164.094C737.435 159.682 742.878 155.564 746.741 151.661C727.119 127.02 711.479 106.602 699.668 90.4391ZM898.584 144.478L901.208 144.53C906.608 153.544 912.391 160.235 918.725 164.647C924.966 169.162 932.658 171.355 941.684 171.355C948.273 171.355 954.242 169.654 959.566 166.278C964.83 162.911 968.948 158.318 972.031 152.438C975.053 146.611 976.539 140.411 976.539 133.91C976.539 123.463 973.364 115.779 967.081 110.875C960.755 105.919 951.084 100.834 938.101 95.5934C925.059 90.3354 915.142 84.5249 908.366 78.2222C901.548 71.9282 898.1 62.2324 898.1 49.2213C898.1 33.4301 903.356 21.3082 913.893 12.778C924.414 4.29099 937.744 0 953.792 0C960.432 0 966.962 0.992888 973.364 2.99593C979.859 5.02487 985.234 8.00354 989.522 12.0096C988.469 14.6084 986.236 21.619 982.831 33.0156H980.343C977.923 26.0913 973.95 20.678 968.49 16.6891C963.013 12.7176 956.586 10.7663 949.216 10.7663C943.544 10.7663 938.271 12.001 933.448 14.5134C928.642 17.0431 924.779 20.5743 921.951 25.2193C919.056 29.847 917.663 35.0101 917.663 40.6825C917.663 51.1553 920.763 58.7703 927.114 63.6052C933.372 68.4833 943.119 73.56 956.374 78.982C969.653 84.3522 979.664 90.0937 986.423 96.1978C993.19 102.302 996.603 111.419 996.603 123.653C996.603 132.65 995.05 140.765 991.984 147.94C988.877 155.106 984.402 161.305 978.611 166.468C972.803 171.623 966.214 175.542 958.759 178.228C955.1 179.462 951.296 180.446 947.297 181.146C943.297 181.767 939.137 182.13 934.662 182.13C931.003 182.13 927.504 181.811 924.125 181.223C920.729 180.68 916.789 179.6 912.195 178.107C904.036 175.396 897.922 171.752 893.83 167.228C895.791 161.651 897.396 154.096 898.584 144.478ZM1153.79 3.90247L1097.02 59.8236L1075.54 81.7189L1096.64 106.101L1121.02 134.238L1136.49 152.153L1156.83 177.804V179.065L1151.09 178.668H1149.51C1149.01 178.668 1148.27 178.59 1147.28 178.409L1143.01 178.288L1136.53 178.538L1128.99 179.065C1122.53 169.482 1116.83 161.702 1111.78 155.659L1056.96 90.4908C1055.9 89.5843 1054.72 89.1699 1053.43 89.1699C1053.3 89.1699 1053.18 89.1872 1053.04 89.3253C1052.92 89.4634 1052.79 89.5757 1052.71 89.6793V179.065L1048.18 178.668C1046.73 178.668 1045.72 178.59 1045.13 178.409L1041.66 178.288L1036.64 178.538L1030.64 179.065V3.81613L1037 4.3428L1041.66 4.59318L1046.01 4.3428L1052.72 3.85931V83.014C1053.22 83.3593 1053.63 83.5061 1053.92 83.5061C1055.25 83.5061 1056.94 82.824 1058.99 81.5203C1060.5 80.3548 1062.23 78.7834 1064.31 76.8236C1066.42 74.8723 1069.09 72.2476 1072.25 68.9668L1133.94 3.85931L1139.74 4.3428L1144 4.59318L1147.95 4.3428L1153.79 3.90247ZM1184.78 179.056V3.86794L1191.15 4.35143L1195.79 4.60181L1200.08 4.35143L1206.82 3.82478V179.065L1202.28 178.668C1200.81 178.668 1199.83 178.59 1199.21 178.409L1195.8 178.288L1192 178.409L1188.86 178.668L1184.78 179.056ZM1401 3.86794V179.065H1393.41C1390.24 174.748 1385.89 169.533 1380.41 163.481L1272.09 41.0451L1269.68 40.9501V179.065L1265.9 178.538L1262.67 178.288L1260.22 178.409L1258.28 178.668L1255.65 179.065V3.86794H1265.43L1384.4 135.766H1387V3.81613L1390.9 4.3428L1393.99 4.59318L1396.87 4.3428L1401 3.86794Z" fill="#7A7979"/>
<g opacity="0.21" clip-path="url(#clip0_253_10112)">
<path d="M-662.339 348.631V265.362L-655.107 265.909L-649.846 266.193L-644.855 265.909L-637.382 265.313V463.799L-642.518 463.359C-644.056 463.359 -645.143 463.271 -645.826 463.066L-649.836 462.929L-654.155 463.066L-657.723 463.359L-662.339 463.809V364.003L-682.304 363.446L-705.453 362.282H-721.947H-738.594C-741.345 362.282 -745.509 362.468 -751.058 362.859C-756.607 363.251 -760.233 363.446 -761.858 363.446L-781.833 364.003V463.819L-786.921 463.369C-788.594 463.369 -789.758 463.281 -790.393 463.076L-794.374 462.939L-800.048 463.222L-806.848 463.819V265.381L-799.625 265.929L-794.374 266.212L-789.392 265.929L-781.824 265.332V348.689L-721.927 350.078C-713.406 349.726 -703.433 349.364 -691.95 349.071C-680.4 348.797 -670.562 348.631 -662.339 348.631ZM-511.915 261.01L-426.812 463.809L-432.785 463.359H-434.448C-434.891 463.359 -435.689 463.271 -436.795 463.066L-441.45 462.929L-448.547 463.212L-456.607 463.809C-461.473 449.238 -466.33 435.655 -471.129 422.991C-475.956 410.327 -481.005 397.849 -486.391 385.469H-558.492L-569.686 413.994L-578.803 438.941C-581.929 447.947 -584.564 456.201 -586.67 463.799L-590.988 463.359C-592.344 463.359 -593.306 463.252 -593.864 463.056L-597.163 462.929L-600.654 463.056L-603.366 463.359L-606.982 463.799L-518.388 261L-511.915 261.01ZM-490.738 373.323L-522.244 298.914L-553.202 373.323H-490.738ZM-395.248 463.809V265.381L-388.007 265.929L-382.765 266.212L-377.928 265.929L-370.282 265.332V463.819L-375.456 463.369C-377.091 463.369 -378.245 463.281 -378.909 463.076L-382.756 462.939L-387.064 463.076L-390.671 463.369L-395.248 463.809ZM-292.815 276.099V355.74L-286.804 355.887H-279.437C-270.147 355.887 -262.338 355.31 -256.048 354.215C-245.123 351.917 -236.266 347.135 -229.601 339.839C-222.946 332.573 -219.57 323.538 -219.57 312.79C-219.57 292.117 -230.034 279.972 -250.903 276.402C-253.961 275.806 -259.847 275.522 -268.608 275.522C-270.061 275.522 -272.157 275.61 -274.86 275.806C-277.562 276.021 -279.457 276.099 -280.726 276.099H-286.458H-292.815ZM-317.82 463.809V265.381H-257.664C-236.054 265.381 -220.147 269.068 -209.934 276.363C-199.72 283.639 -194.604 294.719 -194.604 309.573C-194.604 317.484 -196.162 324.604 -199.249 330.95C-202.394 337.267 -206.644 342.705 -212.203 347.223C-217.762 351.721 -223.946 355.427 -230.774 358.175C-237.622 360.952 -244.96 363.094 -252.817 364.659L-194.267 440.036L-180.591 456.592L-175.302 463.819L-181.928 463.369H-183.727C-184.419 463.369 -185.294 463.281 -186.41 463.076L-191.632 462.939H-196.316L-200.903 463.222L-207.799 463.819C-216.098 451.908 -222.09 443.556 -225.831 438.638L-259.184 394.152L-282.101 366.663L-292.825 366.624V463.829L-297.96 463.379C-299.605 463.379 -300.73 463.281 -301.374 463.085L-305.385 462.948L-311.03 463.222L-317.82 463.809ZM-0.546692 345.149C8.61853 338.529 15.7161 331.703 20.8133 324.711C25.8431 317.68 28.4205 309.622 28.4205 300.42C28.4205 295.931 27.4877 291.804 25.6412 288.196C23.785 284.597 21.121 281.624 17.6299 279.356C16.043 278.329 14.2735 277.517 12.2635 276.979C10.3016 276.412 8.05115 276.109 5.71411 276.109C-2.03735 276.109 -7.99048 278.681 -12.1547 283.786C-16.3383 288.978 -18.4348 295.501 -18.4348 303.442C-18.4252 314.326 -12.4625 328.261 -0.546692 345.149ZM60.494 421.681L96.097 463.535C92.077 463.115 88.8264 462.831 86.249 462.655C83.6235 462.45 81.1904 462.332 78.7572 462.332L71.2365 462.655L62.504 463.203C58.8014 457.844 55.5219 453.16 52.6848 449.238C49.8862 445.326 47.1742 441.835 44.6256 438.843C39.5573 444.309 33.7485 449.238 27.1318 453.697C20.467 458.127 13.456 461.433 6.00262 463.653C-1.45074 465.882 -8.9715 466.977 -16.6172 466.977C-32.3029 466.977 -45.2669 462.596 -55.4035 453.766C-65.5881 444.896 -70.6469 433.191 -70.6469 418.522C-70.6469 413.887 -70.1275 409.594 -69.1081 405.623C-68.1079 401.653 -66.4633 397.673 -64.1263 393.732C-59.6927 386.261 -53.8744 379.552 -46.623 373.665C-39.3908 367.778 -30.8218 362.312 -20.9449 357.315L-19.2811 356.298C-22.7722 350.782 -25.7439 346.02 -28.0713 342.04C-30.4275 338.069 -32.4664 334.461 -34.1205 331.097C-36.9191 325.454 -38.304 318.785 -38.304 311.138C-38.304 302.473 -36.4479 294.895 -32.8318 288.421C-29.1676 281.967 -23.9648 276.989 -17.1558 273.459C-10.3852 269.987 -2.86444 268.227 5.33905 268.227C16.322 268.227 25.3237 270.985 32.3635 276.451C39.3841 281.918 42.9041 289.311 42.9041 298.699C42.9041 306.326 41.0961 313.299 37.4992 319.587C33.9024 325.826 29.6996 331.077 24.8141 335.282C19.9766 339.468 13.1387 344.778 4.29083 351.212L14.4177 364.698L27.8531 382.388C30.1901 385.439 32.4406 388.187 34.4313 390.681C36.3644 393.165 37.9705 395.101 39.1726 396.372L54.2332 413.838C59.5611 405.966 65.418 396.529 71.9289 385.615C77.4588 376.032 82.8253 366.253 88.009 356.249C90.4711 360.561 94.0486 364.532 98.8765 368.228C85.8931 388.52 73.0638 406.308 60.494 421.681ZM-14.3666 363.436L-15.6651 364.16L-16.6267 364.815C-26.4075 371.074 -34.0628 377.87 -39.4869 385.214C-44.9014 392.656 -47.7001 401.457 -47.7001 411.892C-47.7001 419.744 -45.8055 426.922 -42.1797 433.494C-38.506 440.075 -33.4857 445.141 -27.0037 448.769C-20.5601 452.416 -13.5493 454.235 -5.98047 454.235C3.73297 454.235 12.5904 451.79 20.5054 446.862C28.4108 441.865 34.5754 437.2 38.9513 432.78C16.7258 404.87 -0.989075 381.743 -14.3666 363.436ZM210.937 424.644L213.908 424.702C220.025 434.912 226.574 442.491 233.749 447.488C240.818 452.602 249.531 455.086 259.754 455.086C267.217 455.086 273.978 453.16 280.008 449.336C285.97 445.522 290.635 440.32 294.126 433.66C297.55 427.059 299.233 420.038 299.233 412.674C299.233 400.841 295.636 392.138 288.519 386.583C281.354 380.97 270.4 375.21 255.695 369.274C240.923 363.319 229.69 356.738 222.016 349.599C214.293 342.47 210.388 331.488 210.388 316.751C210.388 298.865 216.342 285.135 228.277 275.473C240.192 265.86 255.292 261 273.468 261C280.989 261 288.384 262.125 295.636 264.394C302.993 266.692 309.081 270.065 313.938 274.603C312.745 277.546 310.216 285.487 306.359 298.396H303.541C300.8 290.553 296.3 284.421 290.116 279.903C283.912 275.405 276.632 273.195 268.284 273.195C261.86 273.195 255.888 274.593 250.425 277.439C244.982 280.304 240.606 284.304 237.403 289.565C234.124 294.807 232.547 300.654 232.547 307.079C232.547 318.941 236.057 327.567 243.251 333.043C250.339 338.568 261.379 344.318 276.392 350.459C291.433 356.542 302.772 363.045 310.427 369.959C318.092 376.873 321.958 387.2 321.958 401.057C321.958 411.246 320.198 420.439 316.727 428.565C313.207 436.682 308.138 443.703 301.579 449.551C295.001 455.389 287.538 459.829 279.094 462.87C274.949 464.269 270.641 465.383 266.111 466.176C261.581 466.88 256.869 467.29 251.8 467.29C247.655 467.29 243.693 466.929 239.865 466.264C236.019 465.647 231.556 464.425 226.353 462.733C217.111 459.663 210.187 455.536 205.551 450.412C207.773 444.094 209.59 435.538 210.937 424.644ZM499.993 265.42L435.692 328.76L411.37 353.559L435.269 381.176L462.88 413.046L480.402 433.337L503.436 462.391V463.819L496.935 463.369H495.146C494.578 463.369 493.742 463.281 492.626 463.076L487.789 462.939L480.441 463.222L471.911 463.819C464.592 452.964 458.129 444.153 452.416 437.308L390.318 363.495C389.116 362.468 387.779 361.999 386.327 361.999C386.173 361.999 386.038 362.018 385.884 362.175C385.74 362.331 385.596 362.458 385.509 362.576V463.819L380.374 463.369C378.729 463.369 377.594 463.281 376.921 463.076L372.997 462.939L367.304 463.222L360.514 463.819V265.323L367.717 265.919L372.997 266.203L377.921 265.919L385.519 265.372V355.026C386.086 355.417 386.548 355.584 386.875 355.584C388.385 355.584 390.298 354.811 392.616 353.334C394.328 352.014 396.29 350.235 398.646 348.015C401.031 345.805 404.061 342.832 407.639 339.116L477.517 265.372L484.086 265.919L488.904 266.203L493.376 265.919L499.993 265.42ZM535.096 463.809V265.381L542.309 265.929L547.569 266.212L552.426 265.929L560.062 265.332V463.819L554.917 463.369C553.253 463.369 552.147 463.281 551.445 463.076L547.579 462.939L543.271 463.076L539.722 463.369L535.096 463.809ZM779.999 265.381V463.819H771.401C767.814 458.929 762.881 453.023 756.678 446.168L633.99 307.49L631.259 307.383V463.819L626.979 463.222L623.315 462.939L620.545 463.076L618.343 463.369L615.371 463.819V265.381H626.441L761.198 414.777H764.141V265.323L768.555 265.919L772.056 266.203L775.325 265.919L779.999 265.381Z" fill="#7A7979"/>
</g>
<defs>
<clipPath id="clip0_253_10112">
<rect width="666" height="206.143" fill="white" transform="translate(114 261)"/>
</clipPath>
</defs>
</svg>
