<svg width="236" height="59" viewBox="0 0 236 59" fill="none" xmlns="http://www.w3.org/2000/svg">
<path d="M30.6278 35.1951C28.7291 40.868 35.8355 47.9543 49.1707 47.316C40.5779 44.5314 35.9153 41.1264 35.9153 37.3468C35.9153 30.029 47.8834 21.4222 44.0975 13.9819C42.7878 23.0393 32.9829 28.1616 30.6278 35.1951Z" fill="url(#paint0_linear_415_4340)"/>
<path d="M18.6822 34.2156C16.1245 41.8543 20.9503 50.5702 38.9015 49.7112C4.94622 38.7104 46.5073 22.2815 38.7769 7.09082C35.9817 18.5627 21.8522 24.7488 18.6822 34.2156Z" fill="url(#paint1_linear_415_4340)"/>
<path d="M30.6328 0.826894C28.7655 16.3716 6.57832 23.4811 2.82025 34.9977C-4.78016 58.2938 42.6475 69.0389 53.9746 46.8603C42.9855 58.4618 5.5124 54.8512 10.6528 35.5868C13.6202 24.4626 35.819 14.1555 30.8229 0L30.6328 0.826894Z" fill="url(#paint2_linear_415_4340)"/>
<path d="M83.5689 24.0711V16.4017L84.248 16.4521L84.742 16.4783L85.2106 16.4521L85.9123 16.3972V34.6785L85.4301 34.6379C85.2856 34.6379 85.1835 34.6298 85.1194 34.6109L84.7429 34.5983L84.3374 34.6109L84.0024 34.6379L83.5689 34.6794V25.4869L81.6942 25.4356L79.5206 25.3284H77.9719H76.4088C76.1505 25.3284 75.7595 25.3455 75.2385 25.3816C74.7174 25.4176 74.377 25.4356 74.2244 25.4356L72.3488 25.4869V34.6803L71.8711 34.6388C71.714 34.6388 71.6047 34.6307 71.5451 34.6118L71.1712 34.5992L70.6384 34.6253L70 34.6803V16.4035L70.6782 16.4539L71.1712 16.4801L71.639 16.4539L72.3497 16.399V24.0765L77.9738 24.2044C78.7738 24.1719 79.7103 24.1386 80.7885 24.1116C81.873 24.0864 82.7968 24.0711 83.5689 24.0711ZM97.6932 16.0009L105.684 34.6794L105.123 34.6379H104.967C104.926 34.6379 104.851 34.6298 104.747 34.6109L104.31 34.5983L103.643 34.6244L102.887 34.6794C102.43 33.3373 101.974 32.0863 101.523 30.9199C101.07 29.7535 100.596 28.6042 100.09 27.4639H93.3199L92.2687 30.0913L91.4127 32.3889C91.1192 33.2184 90.8717 33.9786 90.674 34.6785L90.2685 34.6379C90.1412 34.6379 90.0509 34.628 89.9985 34.61L89.6888 34.5983L89.361 34.61L89.1063 34.6379L88.7668 34.6785L97.0855 16L97.6932 16.0009ZM99.6817 26.3453L96.7234 19.492L93.8165 26.3453H99.6817ZM108.648 34.6794V16.4035L109.328 16.4539L109.82 16.4801L110.274 16.4539L110.992 16.399V34.6803L110.506 34.6388C110.353 34.6388 110.244 34.6307 110.182 34.6118L109.821 34.5992L109.416 34.6118L109.078 34.6388L108.648 34.6794ZM118.266 17.3907V24.7259L118.83 24.7394H119.522C120.395 24.7394 121.128 24.6862 121.718 24.5854C122.744 24.3737 123.576 23.9333 124.202 23.2613C124.827 22.5921 125.144 21.7599 125.144 20.77C125.144 18.866 124.161 17.7473 122.201 17.4186C121.914 17.3636 121.362 17.3375 120.539 17.3375C120.403 17.3375 120.206 17.3456 119.952 17.3636C119.698 17.3835 119.52 17.3907 119.401 17.3907H118.863H118.266ZM115.918 34.6794V16.4035H121.567C123.596 16.4035 125.089 16.7431 126.048 17.415C127.007 18.0851 127.488 19.1056 127.488 20.4737C127.488 21.2024 127.342 21.8581 127.052 22.4426C126.756 23.0245 126.357 23.5252 125.835 23.9414C125.313 24.3557 124.733 24.697 124.092 24.9501C123.449 25.2059 122.76 25.4032 122.022 25.5473L127.519 32.4898L128.804 34.0146L129.3 34.6803L128.678 34.6388H128.509C128.444 34.6388 128.362 34.6307 128.257 34.6118L127.767 34.5992H127.327L126.896 34.6253L126.249 34.6803C125.47 33.5832 124.907 32.814 124.556 32.361L121.424 28.2638L119.272 25.7319L118.265 25.7283V34.6812L117.783 34.6397C117.629 34.6397 117.523 34.6307 117.462 34.6127L117.086 34.6001L116.556 34.6253L115.918 34.6794ZM145.709 23.7504C146.57 23.1406 147.236 22.512 147.715 21.868C148.187 21.2204 148.429 20.4782 148.429 19.6307C148.429 19.2173 148.341 18.8372 148.168 18.5048C147.994 18.1734 147.744 17.8995 147.416 17.6906C147.267 17.596 147.101 17.5213 146.912 17.4717C146.728 17.4195 146.516 17.3916 146.297 17.3916C145.569 17.3916 145.01 17.6284 144.619 18.0986C144.226 18.5769 144.03 19.1776 144.03 19.909C144.03 20.9114 144.59 22.1949 145.709 23.7504ZM151.441 30.7992L154.784 34.6541C154.406 34.6154 154.101 34.5893 153.859 34.5731C153.612 34.5542 153.384 34.5434 153.156 34.5434L152.449 34.5731L151.629 34.6235C151.282 34.1299 150.974 33.6985 150.707 33.3373C150.445 32.9771 150.19 32.6555 149.951 32.3799C149.475 32.8834 148.929 33.3373 148.308 33.748C147.682 34.1561 147.024 34.4605 146.324 34.6649C145.624 34.8703 144.918 34.9712 144.2 34.9712C142.727 34.9712 141.51 34.5677 140.558 33.7543C139.602 32.9374 139.127 31.8593 139.127 30.5083C139.127 30.0813 139.176 29.6859 139.271 29.3203C139.365 28.9546 139.52 28.588 139.739 28.225C140.156 27.5369 140.702 26.919 141.383 26.3768C142.062 25.8346 142.866 25.3311 143.794 24.8709L143.95 24.7772C143.622 24.2692 143.343 23.8306 143.125 23.464C142.903 23.0983 142.712 22.766 142.557 22.4561C142.294 21.9364 142.164 21.3222 142.164 20.6178C142.164 19.8198 142.338 19.1218 142.678 18.5255C143.022 17.9311 143.51 17.4726 144.15 17.1475C144.785 16.8277 145.492 16.6656 146.262 16.6656C147.293 16.6656 148.138 16.9196 148.799 17.4231C149.459 17.9266 149.789 18.6075 149.789 19.4721C149.789 20.1747 149.619 20.8169 149.282 21.396C148.944 21.9707 148.549 22.4543 148.09 22.8416C147.636 23.2271 146.994 23.7162 146.163 24.3088L147.114 25.5509L148.376 27.1802C148.595 27.4612 148.807 27.7143 148.993 27.944C149.175 28.1728 149.326 28.3511 149.439 28.4682L150.853 30.0768C151.353 29.3518 151.903 28.4826 152.514 27.4775C153.034 26.5948 153.538 25.6941 154.024 24.7727C154.255 25.1699 154.591 25.5356 155.045 25.876C153.826 27.745 152.621 29.3833 151.441 30.7992ZM144.411 25.4347L144.29 25.5014L144.199 25.5617C143.281 26.1381 142.562 26.7641 142.053 27.4405C141.544 28.126 141.282 28.9366 141.282 29.8976C141.282 30.6209 141.459 31.282 141.8 31.8872C142.145 32.4934 142.616 32.9599 143.225 33.2941C143.83 33.6301 144.488 33.7976 145.199 33.7976C146.111 33.7976 146.943 33.5724 147.686 33.1185C148.428 32.6582 149.007 32.2286 149.418 31.8215C147.331 29.2509 145.668 27.1208 144.411 25.4347ZM165.567 31.0721L165.846 31.0775C166.42 32.0178 167.035 32.7159 167.709 33.1761C168.373 33.6472 169.191 33.8759 170.151 33.8759C170.851 33.8759 171.486 33.6985 172.052 33.3463C172.612 32.9951 173.05 32.5159 173.378 31.9025C173.699 31.2946 173.858 30.6479 173.858 29.9697C173.858 28.8798 173.52 28.0782 172.852 27.5666C172.179 27.0496 171.15 26.5191 169.769 25.9724C168.382 25.4239 167.328 24.8177 166.607 24.1602C165.882 23.5036 165.515 22.4922 165.515 21.1348C165.515 19.4875 166.074 18.2229 167.195 17.333C168.314 16.4476 169.732 16 171.438 16C172.144 16 172.839 16.1036 173.52 16.3125C174.211 16.5242 174.782 16.8349 175.238 17.2529C175.126 17.524 174.889 18.2553 174.527 19.4442H174.262C174.005 18.7219 173.582 18.1571 173.001 17.741C172.419 17.3267 171.735 17.1232 170.952 17.1232C170.348 17.1232 169.788 17.252 169.275 17.5141C168.764 17.778 168.353 18.1463 168.052 18.6309C167.744 19.1137 167.596 19.6523 167.596 20.244C167.596 21.3366 167.926 22.131 168.601 22.6354C169.267 23.1443 170.303 23.6739 171.713 24.2395C173.125 24.7997 174.19 25.3987 174.909 26.0355C175.628 26.6722 175.991 27.6234 175.991 28.8996C175.991 29.8382 175.826 30.6848 175.5 31.4333C175.17 32.1808 174.694 32.8275 174.078 33.3662C173.46 33.9039 172.759 34.3128 171.967 34.5929C171.577 34.7217 171.173 34.8244 170.747 34.8973C170.322 34.9622 169.88 35 169.404 35C169.015 35 168.643 34.9667 168.283 34.9054C167.922 34.8487 167.503 34.7361 167.014 34.5803C166.147 34.2975 165.496 33.9174 165.061 33.4454C165.27 32.8636 165.44 32.0755 165.567 31.0721ZM192.708 16.4071L186.671 22.2409L184.387 24.525L186.631 27.0685L189.223 30.0039L190.869 31.8728L193.032 34.5488V34.6803L192.421 34.6388H192.253C192.2 34.6388 192.121 34.6307 192.017 34.6118L191.562 34.5992L190.872 34.6253L190.071 34.6803C189.384 33.6805 188.777 32.869 188.241 32.2385L182.41 25.4401C182.297 25.3455 182.172 25.3023 182.035 25.3023C182.021 25.3023 182.008 25.3041 181.994 25.3185C181.98 25.3329 181.967 25.3446 181.959 25.3554V34.6803L181.476 34.6388C181.322 34.6388 181.215 34.6307 181.152 34.6118L180.784 34.5992L180.249 34.6253L179.612 34.6803V16.3981L180.288 16.453L180.784 16.4792L181.246 16.453L181.96 16.4026V24.6601C182.013 24.6961 182.056 24.7114 182.087 24.7114C182.229 24.7114 182.408 24.6403 182.626 24.5043C182.787 24.3827 182.971 24.2188 183.192 24.0143C183.416 23.8108 183.701 23.537 184.036 23.1947L190.598 16.4026L191.215 16.453L191.667 16.4792L192.087 16.453L192.708 16.4071ZM196.004 34.6794V16.4035L196.682 16.4539L197.176 16.4801L197.632 16.4539L198.349 16.399V34.6803L197.865 34.6388C197.709 34.6388 197.605 34.6307 197.539 34.6118L197.176 34.5992L196.772 34.6118L196.439 34.6388L196.004 34.6794ZM219 16.4035V34.6803H218.193C217.856 34.2299 217.393 33.6859 216.81 33.0545L205.29 20.2819L205.034 20.272V34.6803L204.632 34.6253L204.288 34.5992L204.028 34.6118L203.821 34.6388L203.542 34.6803V16.4035H204.581L217.235 30.1633H217.511V16.3981L217.925 16.453L218.254 16.4792L218.561 16.453L219 16.4035Z" fill="#002331"/>
<path d="M70 51.8276V42.2124L70.3332 42.2394L70.5725 42.2525L70.7974 42.2394L71.1487 42.2096V51.8267L70.9121 51.8062C70.8362 51.8062 70.7829 51.7997 70.7531 51.7913L70.5734 51.7829L70.3766 51.7913L70.2131 51.8062L70 51.8276ZM81.6672 42.2124V51.8267H81.2717C81.1082 51.59 80.8816 51.3031 80.598 50.9705L74.9694 44.2538L74.8439 44.2473V51.8267L74.6488 51.7997L74.4827 51.7829L74.3526 51.7913L74.2497 51.8062L74.1169 51.8267V42.2124H74.6272L80.8039 49.4499H80.9394V42.2106L81.1408 42.2394L81.2997 42.2534L81.4541 42.2394L81.6672 42.2124ZM92.2291 42.2124V51.8267H91.8327C91.6702 51.59 91.4417 51.3031 91.1581 50.9705L85.5304 44.2538L85.4076 44.2473V51.8267L85.2098 51.7997L85.0428 51.7829L84.9163 51.7913L84.8134 51.8062L84.677 51.8267V42.2124H85.1855L91.3649 49.4499H91.4995V42.2106L91.6999 42.2394L91.8616 42.2534L92.0133 42.2394L92.2291 42.2124ZM102.961 46.9194C102.961 46.4563 102.938 46.066 102.893 45.7464C102.852 45.4259 102.771 45.0998 102.644 44.7625C102.517 44.4243 102.349 44.1131 102.139 43.8252C101.923 43.5364 101.676 43.2941 101.395 43.0929C101.113 42.8944 100.798 42.7407 100.451 42.6289C100.105 42.518 99.7632 42.4668 99.4263 42.4668C98.8646 42.4668 98.3517 42.5777 97.8939 42.8013C97.4369 43.023 97.0486 43.3445 96.7281 43.7581C96.4129 44.1718 96.1709 44.6703 96.0029 45.2619C95.8404 45.8526 95.7582 46.4899 95.7582 47.1868C95.7582 47.8688 95.8476 48.4772 96.021 49.0157C96.198 49.5515 96.4526 50.0117 96.7831 50.3928C97.1173 50.772 97.501 51.0534 97.9372 51.2444C98.3752 51.4345 98.8339 51.5304 99.3125 51.5304C99.9266 51.5304 100.467 51.3869 100.931 51.1C101.395 50.8158 101.773 50.4413 102.07 49.9754C102.366 49.5123 102.582 49.0008 102.732 48.4455C102.886 47.8912 102.961 47.3806 102.961 46.9194ZM99.2755 51.9963C98.5693 51.9963 97.9155 51.8779 97.3213 51.645C96.7271 51.4093 96.2178 51.073 95.797 50.6304C95.3744 50.1897 95.0493 49.6614 94.8208 49.0428C94.7071 48.7306 94.6213 48.4111 94.5644 48.084C94.5102 47.7579 94.4831 47.402 94.4831 47.0182C94.4831 46.2644 94.6059 45.5815 94.8461 44.9591C95.0863 44.3349 95.4331 43.8029 95.8801 43.3538C96.3154 42.9215 96.8238 42.586 97.4044 42.3522C97.9887 42.1165 98.6172 42 99.3044 42C99.9302 42 100.542 42.095 101.131 42.2842C101.727 42.4742 102.256 42.7659 102.718 43.1581C103.182 43.5522 103.55 44.0525 103.823 44.6647C104.099 45.274 104.231 45.9877 104.231 46.802C104.231 47.8194 104.022 48.7195 103.603 49.5086C103.188 50.2931 102.594 50.9062 101.837 51.3385C101.081 51.7764 100.226 51.9963 99.2755 51.9963ZM110.595 48.5955L111.958 44.7811L112.735 42.4323L112.823 42.2096L113.101 42.2385L113.311 42.2516L113.497 42.2385L113.786 42.2115C113.675 42.4416 113.44 42.9969 113.081 43.8774L111.84 46.9874C111.814 47.0554 111.671 47.4337 111.4 48.1157C111.179 48.6859 111.051 49.0241 111.009 49.1285C110.913 49.3707 110.798 49.6717 110.664 50.0369C110.368 50.8298 110.155 51.4261 110.031 51.8258L109.881 51.7838H109.768H109.64L109.495 51.822L108.438 49.3903L107.213 46.3417L106.062 43.4665C105.819 42.8506 105.644 42.4323 105.527 42.2106L105.885 42.2404L106.153 42.2534L106.425 42.2376L106.802 42.2087L107.295 43.5662L108.154 46.0287L109.739 50.2996L109.856 50.294L110.223 49.4807C110.296 49.3195 110.365 49.1546 110.436 48.9915C110.489 48.8527 110.54 48.7213 110.595 48.5955ZM117.937 42.0028H117.64L113.579 51.8276L113.742 51.8071L113.869 51.7922L114.026 51.7838L114.18 51.7922C114.207 51.8006 114.249 51.8071 114.313 51.8071L114.509 51.8276C114.608 51.4587 114.726 51.058 114.871 50.622L115.29 49.4145L115.801 48.0337H119.105C119.354 48.6328 119.587 49.2384 119.809 49.8506C120.027 50.4636 120.249 51.1223 120.472 51.8276L120.84 51.8015L121.168 51.7848L121.383 51.7932C121.436 51.8015 121.468 51.809 121.488 51.809H121.566L121.84 51.8286L117.937 42.0028ZM118.91 47.4393H116.046L117.464 43.8392L118.91 47.4393ZM125.778 42.8861V51.8397L125.543 51.8323C125.465 51.8323 125.418 51.8286 125.384 51.8174L125.208 51.8118L124.943 51.8267L124.631 51.8528V42.8851C123.73 42.8851 122.781 42.9429 121.781 43.0556L121.805 42.8283L121.82 42.6345L121.814 42.5003L121.8 42.3876L121.781 42.2115H128.496L128.475 42.4649L128.461 42.6382L128.475 42.8124L128.496 43.0603L127.242 42.9438C127.075 42.9438 126.899 42.9382 126.707 42.9252C126.221 42.9028 125.914 42.8861 125.778 42.8861ZM129.713 51.8276V42.2124L130.045 42.2394L130.285 42.2525L130.511 42.2394L130.858 42.2096V51.8267L130.624 51.8062C130.544 51.8062 130.496 51.7997 130.465 51.7913L130.287 51.7829L130.089 51.7913L129.923 51.8062L129.713 51.8276ZM141.548 46.9194C141.548 46.4563 141.529 46.066 141.486 45.7464C141.442 45.4259 141.361 45.0998 141.236 44.7625C141.109 44.4243 140.943 44.1131 140.731 43.8252C140.518 43.5364 140.269 43.2941 139.989 43.0929C139.706 42.8944 139.391 42.7407 139.043 42.6289C138.696 42.518 138.355 42.4668 138.018 42.4668C137.456 42.4668 136.947 42.5777 136.486 42.8013C136.033 43.023 135.639 43.3445 135.32 43.7581C135.008 44.1718 134.765 44.6703 134.599 45.2619C134.433 45.8526 134.35 46.4899 134.35 47.1868C134.35 47.8688 134.441 48.4772 134.611 49.0157C134.791 49.5515 135.044 50.0117 135.375 50.3928C135.714 50.772 136.093 51.0534 136.532 51.2444C136.967 51.4345 137.428 51.5304 137.906 51.5304C138.523 51.5304 139.062 51.3869 139.523 51.1C139.989 50.8158 140.368 50.4413 140.663 49.9754C140.957 49.5123 141.179 49.0008 141.327 48.4455C141.475 47.8912 141.548 47.3806 141.548 46.9194ZM137.867 51.9963C137.158 51.9963 136.507 51.8779 135.913 51.645C135.32 51.4093 134.808 51.073 134.387 50.6304C133.966 50.1897 133.641 49.6614 133.412 49.0428C133.296 48.7306 133.211 48.4111 133.157 48.084C133.103 47.7579 133.075 47.402 133.075 47.0182C133.075 46.2644 133.197 45.5815 133.435 44.9591C133.678 44.3349 134.023 43.8029 134.475 43.3538C134.908 42.9215 135.411 42.586 135.996 42.3522C136.579 42.1165 137.209 42 137.894 42C138.523 42 139.13 42.095 139.724 42.2842C140.318 42.4742 140.844 42.7659 141.31 43.1581C141.772 43.5522 142.144 44.0525 142.414 44.6647C142.688 45.274 142.824 45.9877 142.824 46.802C142.824 47.8194 142.617 48.7195 142.196 49.5086C141.776 50.2931 141.187 50.9062 140.429 51.3385C139.673 51.7764 138.816 51.9963 137.867 51.9963ZM152.659 42.2124V51.8267H152.263C152.099 51.59 151.875 51.3031 151.589 50.9705L145.962 44.2538L145.84 44.2473V51.8267L145.64 51.7997L145.474 51.7829L145.343 51.7913L145.245 51.8062L145.113 51.8267V42.2124H145.618L151.796 49.4499H151.933V42.2106L152.133 42.2394L152.294 42.2534L152.447 42.2394L152.659 42.2124ZM158.786 51.8276V42.2124L159.118 42.2394L159.362 42.2525L159.586 42.2394L159.93 42.2096V51.8267L159.697 51.8062C159.621 51.8062 159.569 51.7997 159.538 51.7913L159.362 51.7829L159.162 51.7913L158.996 51.8062L158.786 51.8276ZM170.456 42.2124V51.8267H170.057C169.895 51.59 169.671 51.3031 169.384 50.9705L163.756 44.2538L163.634 44.2473V51.8267L163.436 51.7997L163.266 51.7829L163.141 51.7913L163.039 51.8062L162.905 51.8267V42.2124H163.412L169.59 49.4499H169.726V42.2106L169.931 42.2394L170.092 42.2534L170.241 42.2394L170.456 42.2124ZM172.995 49.9288L173.13 49.9325C173.409 50.4254 173.711 50.7944 174.037 51.0394C174.365 51.2826 174.762 51.4028 175.234 51.4028C175.577 51.4028 175.887 51.3096 176.16 51.1261C176.434 50.9407 176.649 50.6872 176.809 50.3676C176.965 50.0481 177.04 49.708 177.04 49.3502C177.04 48.7772 176.878 48.358 176.55 48.0859C176.219 47.8138 175.719 47.5353 175.042 47.2483C174.368 46.9585 173.852 46.6436 173.499 46.2952C173.144 45.9504 172.966 45.4203 172.966 44.7038C172.966 43.8373 173.241 43.1739 173.786 42.7044C174.334 42.2385 175.024 42.0037 175.86 42.0037C176.202 42.0037 176.543 42.0596 176.876 42.1658C177.211 42.2786 177.492 42.4416 177.72 42.6615C177.662 42.8031 177.545 43.1898 177.365 43.8131H177.237C177.112 43.4367 176.908 43.1357 176.621 42.9205C176.336 42.7025 176.007 42.5926 175.622 42.5926C175.326 42.5926 175.054 42.6615 174.804 42.7994C174.552 42.9382 174.356 43.132 174.206 43.3882C174.056 43.6417 173.978 43.924 173.978 44.237C173.978 44.8091 174.146 45.2293 174.47 45.4967C174.798 45.7622 175.303 46.0427 175.995 46.3371C176.683 46.6343 177.207 46.9483 177.554 47.2818C177.909 47.6182 178.083 48.1194 178.083 48.7903C178.083 49.285 178.006 49.7285 177.841 50.1226C177.681 50.5167 177.448 50.854 177.152 51.1382C176.846 51.4233 176.506 51.6366 176.119 51.7848C175.927 51.8528 175.727 51.905 175.523 51.9432C175.314 51.9786 175.096 52 174.867 52C174.676 52 174.495 51.9823 174.317 51.9488C174.144 51.9199 173.936 51.8602 173.696 51.7773C173.274 51.6292 172.957 51.4298 172.747 51.1773C172.85 50.8698 172.933 50.4543 172.995 49.9288ZM183.361 42.8861V51.8397L183.128 51.8323C183.052 51.8323 182.997 51.8286 182.971 51.8174L182.795 51.8118L182.528 51.8267L182.219 51.8528V42.8851C181.318 42.8851 180.367 42.9429 179.369 43.0556L179.394 42.8283L179.405 42.6345L179.397 42.5003L179.385 42.3876L179.367 42.2115H186.082L186.057 42.4649L186.043 42.6382L186.057 42.8124L186.082 43.0603L184.826 42.9438C184.661 42.9438 184.48 42.9382 184.287 42.9252C183.809 42.9028 183.498 42.8861 183.361 42.8861ZM187.301 51.8276V42.2124L187.632 42.2394L187.871 42.2525L188.096 42.2394L188.448 42.2096V51.8267L188.209 51.8062C188.132 51.8062 188.08 51.7997 188.048 51.7913L187.872 51.7829L187.675 51.7913L187.51 51.8062L187.301 51.8276ZM194.372 42.8861V51.8397L194.135 51.8323C194.061 51.8323 194.008 51.8286 193.976 51.8174L193.803 51.8118L193.537 51.8267L193.226 51.8528V42.8851C192.325 42.8851 191.374 42.9429 190.376 43.0556L190.397 42.8283L190.412 42.6345L190.406 42.5003L190.395 42.3876L190.376 42.2115H197.093L197.067 42.4649L197.053 42.6382L197.067 42.8124L197.093 43.0603L195.834 42.9438C195.669 42.9438 195.495 42.9382 195.299 42.9252C194.815 42.9028 194.506 42.8861 194.372 42.8861ZM198.714 42.2124V47.5949C198.714 48.2266 198.766 48.7744 198.859 49.2394C198.953 49.7033 199.111 50.0928 199.329 50.4096C199.544 50.7236 199.844 50.9584 200.214 51.1121C200.396 51.1894 200.602 51.2444 200.836 51.2863C201.071 51.3292 201.319 51.3459 201.589 51.3459C202.567 51.3459 203.281 51.0059 203.732 50.3183C204.175 49.6316 204.402 48.6775 204.402 47.4495V42.2096L204.607 42.2385L204.768 42.2516L204.909 42.2385L205.131 42.2115V47.8036C205.131 48.7129 204.974 49.4816 204.671 50.103C204.365 50.7292 203.921 51.2006 203.342 51.5155C202.765 51.8342 202.097 51.9953 201.328 51.9953C200.89 51.9953 200.503 51.9571 200.155 51.8845C199.813 51.8127 199.513 51.7046 199.251 51.5612C198.99 51.4214 198.741 51.236 198.505 51.0059C198.134 50.65 197.889 50.2027 197.759 49.6679C197.699 49.381 197.648 49.0903 197.614 48.7968C197.585 48.5052 197.566 48.1837 197.566 47.8353V42.2096L197.898 42.2385L198.142 42.2516L198.36 42.2385L198.714 42.2124ZM211.163 42.8861V51.8397L210.931 51.8323C210.854 51.8323 210.8 51.8286 210.772 51.8174L210.596 51.8118L210.326 51.8267L210.016 51.8528V42.8851C209.118 42.8851 208.167 42.9429 207.166 43.0556L207.192 42.8283L207.208 42.6345L207.199 42.5003L207.185 42.3876L207.166 42.2115H213.885L213.857 42.4649L213.848 42.6382L213.857 42.8124L213.885 43.0603L212.625 42.9438C212.459 42.9438 212.285 42.9382 212.093 42.9252C211.607 42.9028 211.298 42.8861 211.163 42.8861ZM215.443 42.8749V46.4004H217.462H217.813L218.2 46.3622L218.618 46.3268L218.595 46.5411L218.579 46.7005L218.595 46.8439L218.618 47.0927L218.2 47.0554L217.813 47.02H217.462H215.443V51.1233C215.526 51.1233 215.876 51.1112 216.494 51.0972C217.11 51.0785 217.543 51.0692 217.799 51.0692C217.975 51.0692 218.152 51.058 218.319 51.0403C218.489 51.0189 218.717 50.9863 219 50.9425L218.977 51.0925L218.959 51.2388L218.95 51.3692C218.95 51.4568 218.956 51.5248 218.967 51.5723L219 51.7866H214.296V42.2124H218.915L218.891 42.4668L218.88 42.6345L218.891 42.8059L218.915 43.051C218.684 43.0034 218.51 42.9662 218.391 42.9513C218.182 42.9196 217.97 42.9038 217.746 42.9038L216.444 42.8758H215.443V42.8749Z" fill="#005C62"/>
<defs>
<linearGradient id="paint0_linear_415_4340" x1="31.794" y1="30.6688" x2="49.1725" y2="30.6688" gradientUnits="userSpaceOnUse">
<stop stop-color="#98D0BF"/>
<stop offset="0.09" stop-color="#4CBAAF"/>
<stop offset="0.16" stop-color="#23A59B"/>
<stop offset="0.24" stop-color="#0A8D83"/>
<stop offset="0.44" stop-color="#004F48"/>
<stop offset="0.93" stop-color="#000005"/>
<stop offset="1" stop-color="#010005"/>
</linearGradient>
<linearGradient id="paint1_linear_415_4340" x1="24.8887" y1="28.4308" x2="36.2339" y2="28.4308" gradientUnits="userSpaceOnUse">
<stop stop-color="#AFDBD9"/>
<stop offset="0.11" stop-color="#70C5C6"/>
<stop offset="0.21" stop-color="#46B0AA"/>
<stop offset="0.35" stop-color="#1F8589"/>
<stop offset="0.53" stop-color="#005355"/>
<stop offset="0.85" stop-color="#000211"/>
<stop offset="1" stop-color="#000006"/>
</linearGradient>
<linearGradient id="paint2_linear_415_4340" x1="7.99772" y1="29.5" x2="53.9746" y2="29.5" gradientUnits="userSpaceOnUse">
<stop stop-color="#3CBAD9"/>
<stop offset="0.07" stop-color="#2FB7D7"/>
<stop offset="0.09" stop-color="#2BB1D1"/>
<stop offset="0.18" stop-color="#008CAD"/>
<stop offset="0.26" stop-color="#006D84"/>
<stop offset="0.45" stop-color="#003546"/>
<stop offset="0.68" stop-color="#000F27"/>
<stop offset="0.8" stop-color="#010005"/>
<stop offset="0.82" stop-color="#010005"/>
<stop offset="0.84" stop-color="#010005"/>
<stop offset="0.85" stop-color="#010005"/>
<stop offset="0.98" stop-color="#010005"/>
<stop offset="1" stop-color="#010005"/>
</linearGradient>
</defs>
</svg>