<svg width="54" height="53" viewBox="0 0 54 53" fill="none" xmlns="http://www.w3.org/2000/svg">
<g clip-path="url(#clip0_415_2365)">
<path d="M52.2522 27.0821C52.2522 12.8731 40.7336 1.35449 26.5247 1.35449C12.3157 1.35449 0.797119 12.8731 0.797119 27.0821C0.797119 41.291 12.3157 52.8096 26.5247 52.8096C40.7336 52.8096 52.2522 41.291 52.2522 27.0821Z" fill="white"/>
<path d="M39.5353 21.7767C39.2388 20.6746 38.3699 19.8058 37.2679 19.509C35.2545 18.958 27.2014 18.958 27.2014 18.958C27.2014 18.958 19.1484 18.958 17.1352 19.488C16.0545 19.7845 15.1643 20.6747 14.8676 21.7767C14.3379 23.7898 14.3379 27.9647 14.3379 27.9647C14.3379 27.9647 14.3379 32.1607 14.8676 34.1528C15.1644 35.2548 16.0332 36.1237 17.1353 36.4205C19.1697 36.9715 27.2017 36.9715 27.2017 36.9715C27.2017 36.9715 35.2545 36.9715 37.2679 36.4415C38.37 36.145 39.2388 35.2759 39.5356 34.174C40.0653 32.1607 40.0653 27.9859 40.0653 27.9859C40.0653 27.9859 40.0866 23.7898 39.5353 21.7767Z" fill="#1F93AE"/>
<path d="M24.6387 31.8215L31.3353 27.9645L24.6387 24.1074V31.8215Z" fill="white"/>
</g>
<defs>
<clipPath id="clip0_415_2365">
<rect width="52.8092" height="52.8092" fill="white" transform="translate(0.796875)"/>
</clipPath>
</defs>
</svg>
